<svg width="328" height="321" viewBox="0 0 328 321" fill="none" xmlns="http://www.w3.org/2000/svg">
<path d="M327.021 215.982H201.566V143.383H327.021V215.982ZM202.332 215.216H326.255V144.148H202.332V215.216Z" fill="#E0E0E0"/>
<path d="M301.138 182.094H218.367V184.52H301.138V182.094Z" fill="#F0F0F0"/>
<path d="M306.841 191.143H218.367V193.791H306.841V191.143Z" fill="#F0F0F0"/>
<path d="M306.841 200.297H218.367V202.945H306.841V200.297Z" fill="#F0F0F0"/>
<path d="M247.295 168.951H218.367V175.251H247.295V168.951Z" fill="#F0F0F0"/>
<path d="M326.638 143.766H201.973V155.325H326.638V143.766Z" fill="#E0E0E0"/>
<path d="M317.046 153.596C316.885 153.443 318.493 151.506 320.629 149.271C322.764 147.035 324.64 145.344 324.793 145.489C324.946 145.635 323.346 147.579 321.21 149.822C319.075 152.065 317.199 153.749 317.046 153.596Z" fill="white"/>
<path d="M324.809 153.595C324.655 153.748 322.788 152.064 320.644 149.821C318.501 147.578 316.901 145.641 317.062 145.488C317.223 145.335 319.083 147.019 321.226 149.27C323.369 151.52 324.954 153.442 324.809 153.595Z" fill="white"/>
<path d="M172.646 0H47.9805V71.8411H172.646V0Z" fill="#F3F8F7"/>
<path d="M147.154 38.3359H64.3828V40.7625H147.154V38.3359Z" fill="#F0F0F0"/>
<path d="M152.857 47.3828H64.3828V50.0314H152.857V47.3828Z" fill="#F0F0F0"/>
<path d="M152.857 56.5391H64.3828V59.1877H152.857V56.5391Z" fill="#F0F0F0"/>
<path d="M93.3102 25.1914H64.3828V31.4914H93.3102V25.1914Z" fill="#F0F0F0"/>
<path d="M172.646 0H47.9805V11.5589H172.646V0Z" fill="#E0E0E0"/>
<path d="M162.632 9.7745C162.471 9.62906 164.079 7.68472 166.215 5.44949C168.35 3.21427 170.226 1.52254 170.379 1.67564C170.532 1.82874 168.932 3.76542 166.796 6.00065C164.661 8.23587 162.785 9.91229 162.632 9.7745Z" fill="white"/>
<path d="M170.379 9.77454C170.226 9.92764 168.358 8.24357 166.215 6.00069C164.071 3.75781 162.471 1.82878 162.632 1.67568C162.793 1.52258 164.653 3.20665 166.796 5.44953C168.94 7.69241 170.54 9.6291 170.379 9.77454Z" fill="white"/>
<path d="M125.431 133.456H0V60.8496H125.431V133.456ZM0.765478 132.691H124.666V61.6151H0.765478V132.691Z" fill="#E0E0E0"/>
<path d="M99.5563 99.5664H16.7852V101.993H99.5563V99.5664Z" fill="#F0F0F0"/>
<path d="M105.259 108.615H16.7852V111.264H105.259V108.615Z" fill="#F0F0F0"/>
<path d="M105.259 117.77H16.7852V120.418H105.259V117.77Z" fill="#F0F0F0"/>
<path d="M45.7126 86.4238H16.7852V92.7238H45.7126V86.4238Z" fill="#F0F0F0"/>
<path d="M125.049 61.2305H0.382812V72.7893H125.049V61.2305Z" fill="#E0E0E0"/>
<path d="M270.19 150.09H122.988V281.876H270.19V150.09Z" fill="#F3F8F7"/>
<path d="M130.39 108.576H15.0781V228.383H130.39V108.576Z" fill="#F0F0F0"/>
<path d="M130.39 108.576H15.0781V121.628H130.39V108.576Z" fill="#E0E0E0"/>
<path d="M24.6011 114.968C24.5801 115.441 24.4206 115.898 24.1423 116.281C23.8641 116.664 23.4794 116.958 23.036 117.124C22.5926 117.291 22.1099 117.324 21.648 117.219C21.186 117.114 20.7651 116.876 20.4375 116.533C20.1098 116.191 19.8898 115.76 19.8049 115.294C19.7199 114.828 19.7736 114.347 19.9594 113.912C20.1453 113.476 20.455 113.104 20.8501 112.843C21.2452 112.581 21.7084 112.442 22.1822 112.441C22.8373 112.457 23.4594 112.732 23.9127 113.205C24.3659 113.679 24.6134 114.312 24.6011 114.968Z" fill="white"/>
<path d="M34.4214 114.968C34.4019 115.443 34.243 115.902 33.9644 116.288C33.6858 116.674 33.3 116.97 32.8548 117.138C32.4096 117.306 31.9247 117.34 31.4606 117.235C30.9964 117.129 30.5734 116.89 30.2443 116.546C29.9151 116.203 29.6943 115.77 29.6093 115.301C29.5243 114.833 29.5789 114.35 29.7663 113.913C29.9537 113.475 30.2656 113.102 30.6632 112.841C31.0608 112.579 31.5266 112.44 32.0025 112.441C32.6576 112.457 33.2798 112.732 33.733 113.205C34.1862 113.679 34.4337 114.312 34.4214 114.968Z" fill="white"/>
<path d="M44.2456 114.968C44.2261 115.443 44.0672 115.902 43.7886 116.288C43.5101 116.674 43.1242 116.97 42.679 117.138C42.2338 117.306 41.7489 117.34 41.2848 117.235C40.8206 117.129 40.3976 116.89 40.0685 116.546C39.7393 116.203 39.5185 115.77 39.4335 115.301C39.3485 114.833 39.4032 114.35 39.5905 113.913C39.7779 113.475 40.0898 113.102 40.4874 112.841C40.885 112.579 41.3508 112.44 41.8267 112.441C42.4818 112.457 43.104 112.732 43.5572 113.205C44.0105 113.679 44.258 114.312 44.2456 114.968Z" fill="white"/>
<path d="M310.553 26.2031H163.352V172.917H310.553V26.2031Z" fill="#F0F0F0"/>
<path d="M310.553 26.2031H163.352V43.3883H310.553V26.2031Z" fill="#E0E0E0"/>
<path d="M175.893 34.6228C175.866 35.2476 175.656 35.8507 175.289 36.3572C174.922 36.8637 174.415 37.2513 173.83 37.4719C173.245 37.6925 172.608 37.7364 171.998 37.5981C171.388 37.4598 170.832 37.1454 170.399 36.694C169.967 36.2426 169.676 35.674 169.564 35.0589C169.451 34.4437 169.522 33.8091 169.767 33.2338C170.012 32.6585 170.421 32.1679 170.943 31.8228C171.464 31.4778 172.075 31.2936 172.701 31.293C173.565 31.3131 174.386 31.6747 174.984 32.2988C175.583 32.9228 175.909 33.7585 175.893 34.6228Z" fill="white"/>
<path d="M187.888 32.3729C188.312 32.8337 188.592 33.4093 188.691 34.0278C188.791 34.6463 188.706 35.2805 188.448 35.8512C188.19 36.422 187.769 36.9041 187.239 37.2376C186.708 37.571 186.092 37.741 185.465 37.7264C184.839 37.7118 184.231 37.5132 183.717 37.1554C183.202 36.7976 182.805 36.2963 182.573 35.7141C182.342 35.1319 182.287 34.4945 182.415 33.8813C182.544 33.2681 182.85 32.7063 183.295 32.2657C183.919 31.672 184.753 31.3499 185.614 31.37C186.475 31.3901 187.292 31.7507 187.888 32.3729Z" fill="white"/>
<path d="M201.748 34.6228C201.721 35.2476 201.511 35.8507 201.145 36.3572C200.778 36.8637 200.27 37.2513 199.685 37.4719C199.1 37.6925 198.463 37.7364 197.853 37.5981C197.243 37.4598 196.688 37.1454 196.255 36.694C195.822 36.2426 195.532 35.674 195.419 35.0589C195.307 34.4437 195.378 33.8091 195.623 33.2338C195.868 32.6585 196.276 32.1679 196.798 31.8228C197.32 31.4778 197.931 31.2936 198.556 31.293C199.421 31.3131 200.242 31.6747 200.84 32.2988C201.438 32.9228 201.765 33.7585 201.748 34.6228Z" fill="white"/>
<path d="M278.756 320.801C278.756 320.908 225.602 321 160.054 321C94.5059 321 41.3281 320.908 41.3281 320.801C41.3281 320.693 94.4753 320.602 160.054 320.602C225.632 320.602 278.756 320.701 278.756 320.801Z" fill="black"/>
<path d="M226.964 227.089C215.137 218.83 212.458 203.497 212.925 189.711C213.001 187.414 212.749 184.98 213.843 182.967C214.938 180.953 217.495 179.568 219.554 180.532C221.261 181.336 222.003 183.326 222.96 184.972C224.237 187.164 226.108 188.95 228.357 190.124C229.819 190.889 231.633 191.349 233.08 190.553C235.07 189.458 235.3 186.725 235.284 184.429C235.284 180.157 235.259 175.891 235.208 171.63C235.07 169.342 235.303 167.046 235.897 164.832C236.609 162.658 238.193 160.645 240.359 160.033C242.526 159.42 245.228 160.683 245.718 162.918C245.802 163.865 245.825 164.816 245.787 165.766C245.848 166.723 246.292 167.772 247.188 168.063C248.083 168.353 249.017 167.687 249.706 167.014C252.064 164.717 253.671 161.724 255.164 158.77C256.656 155.815 258.119 152.776 260.262 150.257C262.405 147.739 265.368 145.741 268.682 145.55C271.997 145.358 275.449 147.394 276.276 150.609C277.102 153.824 275.227 157.108 273.214 159.719C270.176 163.593 266.595 167.009 262.581 169.861C261.798 170.289 261.173 170.957 260.798 171.768C260.3 173.298 261.747 174.829 263.255 175.312C264.962 175.878 266.814 175.702 268.613 175.916C270.412 176.131 272.326 176.912 273.007 178.596C273.941 180.938 271.981 183.388 270.06 184.995C266.202 188.21 261.821 190.74 257.108 192.474C255.424 193.086 253.656 193.63 252.293 194.809C250.931 195.988 250.119 198.047 250.938 199.662C251.757 201.277 253.863 201.79 255.631 201.461C257.399 201.132 258.968 200.182 260.652 199.547C263.798 198.361 267.855 198.575 269.838 201.292C270.452 202.228 270.841 203.294 270.974 204.406C271.107 205.518 270.98 206.645 270.604 207.7C269.837 209.798 268.658 211.722 267.136 213.356C262.122 219.347 255.608 223.898 248.259 226.546C240.964 229.072 234.205 229.761 226.956 227.105" fill="#29A882"/>
<path d="M272.908 147.439C272.908 147.439 272.839 147.516 272.686 147.654L272.005 148.259C271.408 148.794 270.528 149.575 269.418 150.609C266.271 153.531 263.349 156.686 260.676 160.047C258.969 162.167 257.201 164.571 255.318 167.181C253.435 169.792 251.49 172.609 249.561 175.602C247.505 178.758 245.621 182.024 243.92 185.385C243.032 187.138 242.251 188.967 241.447 190.835L239.074 196.538C235.946 203.721 233.222 211.074 230.914 218.561C229.055 224.687 227.774 230.974 227.087 237.338C226.642 241.634 226.57 245.96 226.872 250.267C226.995 251.798 227.11 252.97 227.217 253.766C227.263 254.149 227.293 254.455 227.324 254.677V254.991C227.291 254.891 227.268 254.788 227.255 254.684C227.217 254.462 227.171 254.164 227.11 253.781C226.972 253.016 226.827 251.806 226.689 250.275C226.319 245.959 226.345 241.619 226.765 237.308C227.41 230.916 228.663 224.6 230.508 218.446C232.797 210.938 235.514 203.567 238.646 196.369L241.08 190.69C241.883 188.829 242.672 186.985 243.568 185.224C245.281 181.853 247.18 178.579 249.255 175.418C251.215 172.356 253.19 169.585 255.05 166.998C256.91 164.41 258.709 161.991 260.408 159.879C263.108 156.526 266.069 153.393 269.265 150.509C270.398 149.491 271.301 148.725 271.913 148.213L272.625 147.638C272.712 147.562 272.807 147.496 272.908 147.439Z" fill="black"/>
<path d="M243.666 185.21C243.558 184.895 243.483 184.569 243.444 184.238C243.321 183.603 243.183 182.707 243.023 181.543C242.693 179.247 242.357 176.101 241.997 172.618C241.637 169.135 241.231 165.981 240.895 163.708C240.719 162.575 240.565 161.664 240.458 161.028C240.375 160.703 240.331 160.369 240.328 160.033C240.46 160.34 240.555 160.661 240.611 160.99C240.78 161.618 240.971 162.521 241.185 163.662C241.622 165.958 242.05 169.081 242.41 172.572C242.77 176.063 243.076 179.124 243.313 181.505C243.428 182.577 243.528 183.488 243.604 184.215C243.664 184.543 243.684 184.877 243.666 185.21Z" fill="black"/>
<path d="M273.122 179.714C272.749 179.795 272.37 179.841 271.989 179.852C271.223 179.921 270.136 180.012 268.789 180.166C266.095 180.456 262.39 180.992 258.325 181.758C254.26 182.523 250.609 183.388 247.984 184.054C246.675 184.391 245.618 184.697 244.922 184.904C244.55 185.036 244.165 185.128 243.773 185.18C244.127 185.002 244.496 184.856 244.876 184.743C245.595 184.491 246.636 184.138 247.938 183.763C250.548 182.998 254.199 182.087 258.279 181.306C261.735 180.645 265.223 180.16 268.728 179.852C270.083 179.737 271.178 179.691 271.943 179.676C272.336 179.649 272.731 179.662 273.122 179.714Z" fill="black"/>
<path d="M230.882 217.912C230.801 217.801 230.734 217.68 230.683 217.552L230.178 216.488C229.742 215.562 229.152 214.191 228.448 212.515C227.024 209.147 225.21 204.431 223.281 199.195C221.352 193.96 219.576 189.244 218.229 185.838C217.571 184.184 217.027 182.829 216.621 181.819L216.193 180.724C216.133 180.598 216.092 180.464 216.07 180.326C216.152 180.437 216.219 180.558 216.269 180.686L216.775 181.75C217.203 182.676 217.8 184.046 218.505 185.723C219.928 189.091 221.742 193.806 223.672 199.042C225.601 204.278 227.376 208.994 228.724 212.4C229.382 214.054 229.925 215.408 230.324 216.419C230.5 216.855 230.645 217.184 230.76 217.514C230.819 217.64 230.86 217.774 230.882 217.912Z" fill="black"/>
<path d="M269.983 205.303C269.861 205.373 269.729 205.427 269.593 205.463L268.46 205.846L264.273 207.201C260.736 208.349 255.853 209.988 250.494 211.794C245.136 213.601 240.229 215.208 236.67 216.28C234.894 216.823 233.447 217.237 232.444 217.512L231.288 217.811C231.154 217.853 231.015 217.882 230.875 217.895C230.998 217.825 231.129 217.771 231.265 217.734L232.398 217.352L236.585 215.997C240.122 214.848 245.006 213.21 250.364 211.404C255.722 209.597 260.621 207.99 264.181 206.918C265.964 206.374 267.404 205.961 268.414 205.685L269.57 205.387C269.704 205.344 269.843 205.316 269.983 205.303Z" fill="black"/>
<path d="M254.031 19.6193L250.088 21.0278L248.397 15.876C245.289 6.37631 235.383 1.33174 226.282 4.53914C217.18 7.74653 212.335 18.1648 215.443 27.6645L217.134 32.8163L213.177 34.2324C211.668 34.8178 210.442 35.9621 209.755 37.4277C209.068 38.8932 208.972 40.5672 209.487 42.1017L220.457 75.6224C220.684 76.382 221.062 77.0881 221.568 77.6987C222.074 78.3093 222.698 78.812 223.402 79.1769C224.106 79.5418 224.876 79.7614 225.667 79.8228C226.457 79.8841 227.252 79.7859 228.004 79.534L268.858 64.9209C270.387 64.3365 271.63 63.182 272.325 61.7001C273.02 60.2183 273.114 58.5245 272.586 56.9751L261.609 23.4544C261.375 22.6969 260.991 21.9942 260.48 21.3883C259.969 20.7824 259.341 20.2856 258.634 19.9277C257.927 19.5698 257.155 19.358 256.364 19.305C255.573 19.252 254.779 19.3589 254.031 19.6193ZM222.891 24.9777C222.053 22.5076 222.203 19.8091 223.311 17.4475C224.418 15.0858 226.396 13.2444 228.831 12.3088C230.033 11.8975 231.306 11.7325 232.573 11.8238C233.841 11.9151 235.077 12.2608 236.208 12.8401C237.339 13.4195 238.341 14.2208 239.156 15.1961C239.97 16.1715 240.58 17.3009 240.949 18.517L242.633 23.6687L224.575 30.1294L222.891 24.9777ZM245.855 54.7246L248.657 63.2827C248.708 63.4543 248.692 63.6391 248.61 63.7988C248.529 63.9585 248.39 64.0807 248.221 64.1401L244.294 65.5409C244.137 65.5842 243.97 65.5654 243.828 65.4883C243.685 65.4113 243.578 65.282 243.528 65.1275L240.704 56.6077C239.146 56.5228 237.652 55.9641 236.42 55.0065C235.189 54.0489 234.28 52.7379 233.814 51.2492C233.149 49.2811 233.27 47.1317 234.153 45.2511C235.036 43.3705 236.613 41.9045 238.553 41.1601C239.51 40.8329 240.524 40.7018 241.534 40.7747C242.543 40.8476 243.527 41.123 244.428 41.5845C245.329 42.0459 246.128 42.684 246.776 43.4607C247.425 44.2373 247.911 45.1367 248.205 46.1052C248.698 47.6174 248.738 49.2405 248.322 50.7755C247.906 52.3106 247.052 53.6909 245.863 54.7475L245.855 54.7246Z" fill="#29A882"/>
<path d="M249.911 20.9363C249.911 21.0435 242.601 23.7916 233.507 27.0602C224.413 30.3289 216.995 32.9545 216.957 32.8779C216.919 32.8014 224.267 30.0303 233.369 26.754C242.471 23.4777 249.873 20.8368 249.911 20.9363Z" fill="black"/>
<path d="M258.593 22.3438C258.627 22.4102 258.655 22.4793 258.677 22.5504C258.738 22.7035 258.807 22.9026 258.899 23.1475C259.098 23.7063 259.374 24.4795 259.718 25.444L262.657 34.0021C263.882 37.6306 265.344 41.9326 266.967 46.7092C267.733 49.1052 268.636 51.6007 269.478 54.2263C269.929 55.5794 270.123 57.0045 270.052 58.4289C269.987 59.1696 269.776 59.8902 269.432 60.5493C269.064 61.2061 268.573 61.7857 267.985 62.2563C266.803 63.1196 265.49 63.7889 264.097 64.2389L260.154 65.6551L252.691 68.3266L240.053 72.8277L231.518 75.8284L229.221 76.5939L228.609 76.7929C228.544 76.822 228.474 76.8402 228.402 76.8465C228.402 76.8465 228.464 76.8465 228.594 76.7547L229.191 76.5173L231.487 75.6524L239.976 72.5292L252.591 67.9362L260.04 65.2417L263.982 63.8179C265.335 63.3861 266.61 62.7372 267.756 61.8965C268.302 61.4599 268.76 60.9218 269.103 60.312C269.427 59.7025 269.622 59.0328 269.677 58.3447C269.747 56.9723 269.56 55.5988 269.126 54.2952C268.299 51.6926 267.426 49.1741 266.638 46.7781C265.046 41.9938 263.576 37.6765 262.413 34.0481C261.249 30.4196 260.269 27.5031 259.596 25.4516C259.274 24.4488 259.029 23.668 258.83 23.1016L258.646 22.4892C258.623 22.4428 258.605 22.394 258.593 22.3438Z" fill="black"/>
<path d="M237.036 11.7887C237.036 11.7887 236.63 11.5896 235.88 11.2834C234.81 10.8726 233.68 10.6448 232.535 10.6098C230.837 10.5516 229.149 10.8706 227.59 11.5437C225.694 12.3819 224.073 13.7376 222.913 15.4553C221.745 17.1681 221.118 19.1923 221.114 21.2654C221.13 22.9646 221.387 24.6528 221.879 26.2793C222.277 27.6725 222.691 28.7825 222.966 29.5556C223.129 29.9483 223.262 30.3526 223.364 30.7651C223.147 30.3979 222.965 30.0109 222.821 29.6092C222.507 28.8437 222.055 27.7567 221.611 26.3559C221.066 24.7123 220.77 22.9966 220.731 21.2654C220.711 19.1139 221.352 17.0082 222.568 15.2333C223.769 13.4529 225.456 12.0552 227.429 11.2069C229.036 10.5301 230.778 10.2315 232.519 10.3342C233.689 10.3938 234.838 10.6662 235.91 11.138C236.197 11.2702 236.473 11.4238 236.737 11.5973C236.846 11.6451 236.947 11.7097 237.036 11.7887Z" fill="black"/>
<path d="M237.388 41.7421C237.51 41.6681 237.638 41.6041 237.771 41.5507C238.154 41.3778 238.551 41.237 238.957 41.1297C239.602 40.9393 240.268 40.8262 240.94 40.7929C241.854 40.7438 242.768 40.8818 243.627 41.1986C245.586 41.8875 247.385 43.8855 248.273 46.557C248.699 47.9907 248.699 49.5172 248.273 50.9509C247.801 52.507 246.955 53.9236 245.808 55.0769L245.854 54.8702C246.872 57.6643 247.982 60.6956 249.131 63.8571L249.199 64.0484L249.008 64.1173L247.255 64.6991L243.428 65.9775L243.236 66.0387L243.175 65.8473C242.126 62.6782 240.978 59.7234 240.113 56.8222L240.282 56.9523C238.785 56.828 237.358 56.2663 236.179 55.3372C235.111 54.5151 234.236 53.4702 233.614 52.2752C233.053 51.2155 232.774 50.0293 232.803 48.8305C232.838 47.6053 233.144 46.4031 233.699 45.31C234.253 44.2169 235.043 43.2599 236.01 42.5076C236.409 42.1842 236.855 41.9259 237.334 41.7421C236.902 41.9986 236.483 42.2771 236.079 42.5765C235.016 43.4758 234.202 44.6329 233.714 45.937C233.295 46.9204 233.099 47.9843 233.14 49.0523C233.181 50.1204 233.458 51.1661 233.951 52.1145C234.563 53.2641 235.417 54.267 236.454 55.0539C237.58 55.9371 238.94 56.4696 240.366 56.5849H240.496L240.534 56.6997C241.376 59.5474 242.532 62.5251 243.596 65.7095L243.343 65.5871L247.171 64.3087L248.916 63.7193L248.794 63.9795C247.653 60.8181 246.551 57.7791 245.54 54.985V54.8702L245.632 54.7784C246.745 53.6729 247.575 52.3153 248.051 50.8208C248.457 49.4494 248.457 47.9897 248.051 46.6183C247.217 44.0462 245.494 42.0942 243.627 41.4053C242.8 41.0865 241.917 40.9381 241.032 40.969C240.371 40.9841 239.713 41.074 239.072 41.2369C237.932 41.5201 237.396 41.7804 237.388 41.7421Z" fill="black"/>
<path d="M213.728 262.77L137.264 262.418C132.848 262.394 128.623 260.618 125.516 257.48C122.408 254.343 120.673 250.1 120.692 245.685L121.503 53.9987C121.512 51.8109 121.952 49.6464 122.798 47.6289C123.644 45.6113 124.879 43.7803 126.433 42.2405C127.988 40.7006 129.83 39.4822 131.855 38.6547C133.88 37.8273 136.049 37.4071 138.236 37.4182L214.692 37.7703C219.108 37.7926 223.334 39.5666 226.443 42.7026C229.552 45.8387 231.289 50.0804 231.272 54.4962L230.461 246.175C230.452 248.363 230.012 250.528 229.166 252.547C228.32 254.565 227.085 256.397 225.531 257.938C223.978 259.479 222.136 260.699 220.11 261.528C218.085 262.357 215.916 262.779 213.728 262.77Z" fill="black"/>
<path d="M214.577 44.362H199.757C199.274 44.371 198.797 44.4751 198.353 44.6685C197.91 44.8619 197.509 45.1407 197.174 45.489C196.838 45.8373 196.574 46.2483 196.398 46.6985C196.221 47.1488 196.135 47.6294 196.144 48.1129V50.7998C196.153 51.283 196.067 51.7632 195.89 52.213C195.713 52.6628 195.45 53.0733 195.114 53.421C194.779 53.7687 194.378 54.0468 193.934 54.2393C193.491 54.4318 193.014 54.5351 192.531 54.543L163.642 54.4129C162.665 54.3868 161.738 53.974 161.064 53.2649C160.391 52.5559 160.027 51.6087 160.052 50.6314V47.9445C160.077 46.9685 159.713 46.0224 159.042 45.3136C158.37 44.6048 157.445 44.1911 156.469 44.163H151.256L138.282 44.1018C135.196 44.0834 132.228 45.2887 130.028 47.4536C127.829 49.6186 126.577 52.5669 126.547 55.653L125.781 242.754C125.774 244.285 126.069 245.802 126.648 247.219C127.228 248.636 128.08 249.926 129.158 251.013C130.236 252.101 131.517 252.965 132.929 253.558C134.34 254.15 135.855 254.459 137.386 254.466L213.689 254.818C215.221 254.825 216.739 254.53 218.157 253.95C219.575 253.37 220.865 252.517 221.954 251.439C223.042 250.36 223.907 249.078 224.5 247.666C225.093 246.253 225.401 244.737 225.408 243.205L226.174 56.1046C226.192 53.0099 224.981 50.0345 222.806 47.8325C220.632 45.6306 217.672 44.3823 214.577 44.362Z" fill="white"/>
<path d="M204.313 229.855L147.576 229.61C146.987 229.61 146.512 228.967 146.52 228.187L146.581 213.344C146.581 212.578 147.063 211.92 147.653 211.92L204.39 212.18C204.716 212.237 205.009 212.417 205.205 212.684C205.402 212.95 205.488 213.283 205.446 213.612L205.393 228.439C205.393 229.228 204.903 229.863 204.313 229.855Z" fill="#29A882"/>
<path d="M159.496 224.049C159.073 224.049 158.667 223.981 158.277 223.846C157.892 223.705 157.594 223.526 157.382 223.309L157.618 222.845C157.819 223.041 158.087 223.206 158.423 223.341C158.764 223.471 159.122 223.537 159.496 223.537C159.854 223.537 160.144 223.493 160.366 223.406C160.594 223.314 160.759 223.192 160.862 223.041C160.971 222.889 161.025 222.721 161.025 222.536C161.025 222.314 160.96 222.135 160.83 222C160.705 221.864 160.54 221.758 160.334 221.683C160.128 221.601 159.9 221.531 159.651 221.471C159.401 221.412 159.152 221.349 158.903 221.284C158.653 221.214 158.423 221.122 158.212 221.008C158.006 220.894 157.838 220.745 157.707 220.56C157.583 220.371 157.52 220.124 157.52 219.821C157.52 219.539 157.594 219.281 157.74 219.048C157.892 218.81 158.122 218.62 158.431 218.479C158.74 218.332 159.136 218.259 159.618 218.259C159.938 218.259 160.255 218.305 160.57 218.398C160.884 218.484 161.155 218.606 161.383 218.763L161.179 219.243C160.936 219.081 160.675 218.961 160.399 218.885C160.128 218.81 159.865 218.772 159.61 218.772C159.269 218.772 158.987 218.818 158.764 218.91C158.542 219.002 158.377 219.127 158.268 219.284C158.165 219.436 158.114 219.609 158.114 219.804C158.114 220.027 158.176 220.205 158.301 220.341C158.431 220.476 158.599 220.582 158.805 220.658C159.017 220.734 159.247 220.802 159.496 220.861C159.746 220.921 159.992 220.986 160.236 221.056C160.486 221.127 160.713 221.219 160.919 221.333C161.131 221.441 161.299 221.588 161.423 221.772C161.554 221.956 161.619 222.198 161.619 222.496C161.619 222.772 161.543 223.03 161.391 223.268C161.239 223.501 161.006 223.691 160.692 223.837C160.383 223.978 159.984 224.049 159.496 224.049ZM162.93 224V218.308H163.531V224H162.93ZM165.383 224V218.308H165.879L169.807 223.252H169.547V218.308H170.14V224H169.644L165.725 219.056H165.985V224H165.383ZM174.494 224.049C174.061 224.049 173.659 223.978 173.291 223.837C172.928 223.691 172.61 223.488 172.339 223.228C172.074 222.967 171.865 222.661 171.713 222.309C171.567 221.956 171.494 221.571 171.494 221.154C171.494 220.737 171.567 220.352 171.713 219.999C171.865 219.647 172.077 219.341 172.348 219.081C172.619 218.82 172.936 218.62 173.299 218.479C173.668 218.332 174.069 218.259 174.502 218.259C174.936 218.259 175.332 218.327 175.69 218.463C176.053 218.598 176.362 218.804 176.616 219.081L176.242 219.463C176.004 219.224 175.741 219.053 175.454 218.95C175.166 218.847 174.857 218.796 174.527 218.796C174.174 218.796 173.849 218.856 173.551 218.975C173.258 219.089 173.001 219.254 172.779 219.471C172.562 219.682 172.391 219.932 172.266 220.219C172.147 220.501 172.087 220.813 172.087 221.154C172.087 221.49 172.147 221.802 172.266 222.089C172.391 222.376 172.562 222.629 172.779 222.845C173.001 223.057 173.258 223.222 173.551 223.341C173.849 223.455 174.172 223.512 174.519 223.512C174.844 223.512 175.15 223.463 175.437 223.366C175.73 223.268 175.998 223.103 176.242 222.87L176.584 223.325C176.313 223.564 175.996 223.745 175.633 223.87C175.269 223.989 174.89 224.049 174.494 224.049ZM176.007 223.252V221.154H176.584V223.325L176.007 223.252ZM182.708 224.049C181.982 224.049 181.41 223.84 180.992 223.423C180.575 223.005 180.366 222.387 180.366 221.569V218.308H180.968V221.544C180.968 222.217 181.12 222.713 181.423 223.032C181.727 223.352 182.155 223.512 182.708 223.512C183.266 223.512 183.697 223.352 184.001 223.032C184.305 222.713 184.456 222.217 184.456 221.544V218.308H185.042V221.569C185.042 222.387 184.833 223.005 184.416 223.423C184.004 223.84 183.434 224.049 182.708 224.049ZM186.855 224V218.308H188.985C189.468 218.308 189.883 218.387 190.229 218.544C190.576 218.696 190.842 218.918 191.026 219.211C191.216 219.498 191.311 219.848 191.311 220.26C191.311 220.661 191.216 221.008 191.026 221.3C190.842 221.588 190.576 221.81 190.229 221.967C189.883 222.124 189.468 222.203 188.985 222.203H187.188L187.457 221.918V224H186.855ZM187.457 221.967L187.188 221.674H188.969C189.538 221.674 189.969 221.552 190.262 221.309C190.56 221.059 190.709 220.71 190.709 220.26C190.709 219.804 190.56 219.452 190.262 219.203C189.969 218.953 189.538 218.829 188.969 218.829H187.188L187.457 218.544V221.967Z" fill="#E8E8E3"/>
<path d="M158.891 99.3608L139.203 99.2715L139.187 102.885L158.875 102.974L158.891 99.3608Z" fill="#29A882"/>
<path opacity="0.1" d="M158.891 99.3608L139.203 99.2715L139.187 102.885L158.875 102.974L158.891 99.3608Z" fill="black"/>
<path d="M216.606 121.545C216.761 121.529 216.913 121.493 217.058 121.437C217.27 121.355 217.454 121.214 217.589 121.031C217.725 120.848 217.806 120.631 217.823 120.404C217.823 119.187 217.823 117.411 217.823 115.13C217.823 113.989 217.823 112.711 217.823 111.302C217.823 110.958 217.823 110.598 217.823 110.238C217.873 109.889 217.797 109.534 217.609 109.236C217.504 109.093 217.366 108.976 217.208 108.895C217.05 108.814 216.876 108.771 216.698 108.769H215.504H204.443L140.418 108.531C140.254 108.529 140.092 108.565 139.946 108.639C139.799 108.712 139.672 108.82 139.576 108.952C139.391 109.252 139.321 109.608 139.377 109.955C139.377 110.721 139.377 111.486 139.377 112.252C139.377 113.783 139.377 115.314 139.377 116.845C139.377 117.61 139.377 118.376 139.377 119.141C139.345 119.498 139.345 119.856 139.377 120.213C139.417 120.366 139.492 120.507 139.596 120.627C139.699 120.746 139.829 120.84 139.974 120.902C140.125 120.962 140.287 120.99 140.449 120.986H144.345L161.346 121.078L190.128 121.254L209.533 121.407L214.807 121.468H216.178C216.491 121.468 216.644 121.468 216.644 121.468H216.178H214.807H209.533H190.128L161.346 121.376L144.345 121.307H140.449C140.234 121.316 140.021 121.28 139.821 121.2C139.62 121.114 139.44 120.983 139.297 120.817C139.154 120.652 139.05 120.455 138.994 120.243C138.95 120.042 138.935 119.836 138.948 119.631V119.064C138.948 118.299 138.948 117.533 138.948 116.768C138.948 115.237 138.948 113.706 138.948 112.175C138.948 111.41 138.948 110.644 138.948 109.879C138.934 109.675 138.934 109.47 138.948 109.266C138.977 109.041 139.064 108.827 139.201 108.646C139.333 108.461 139.508 108.311 139.71 108.209C139.913 108.106 140.137 108.054 140.365 108.057L204.389 108.409L215.45 108.485H216.644C216.855 108.486 217.062 108.536 217.249 108.634C217.435 108.731 217.596 108.872 217.716 109.044C217.932 109.377 218.019 109.777 217.961 110.169C217.961 110.529 217.961 110.889 217.961 111.234C217.961 112.627 217.961 113.905 217.961 115.061C217.961 117.357 217.907 119.118 217.892 120.343C217.873 120.578 217.788 120.804 217.645 120.992C217.503 121.181 217.31 121.324 217.088 121.407C216.944 121.497 216.777 121.544 216.606 121.545Z" fill="#E0E0E0"/>
<path d="M181.125 112.375H145.117V115.751H181.125V112.375Z" fill="#29A882"/>
<path opacity="0.2" d="M181.125 112.375H145.117V115.751H181.125V112.375Z" fill="white"/>
<path d="M158.758 132.322L139.07 132.232L139.054 135.845L158.742 135.935L158.758 132.322Z" fill="#29A882"/>
<path opacity="0.1" d="M158.758 132.322L139.07 132.232L139.054 135.845L158.742 135.935L158.758 132.322Z" fill="black"/>
<path d="M216.11 154.507C216.265 154.488 216.418 154.46 216.569 154.423C216.783 154.355 216.98 154.242 217.146 154.091C217.313 153.941 217.445 153.756 217.534 153.55C217.654 153.241 217.702 152.909 217.672 152.578C217.672 152.211 217.672 151.813 217.672 151.369C217.672 150.481 217.672 149.47 217.672 148.307V143.446C217.708 143.094 217.63 142.74 217.45 142.435C217.261 142.123 216.964 141.892 216.615 141.785C216.234 141.717 215.846 141.696 215.459 141.724H204.444L140.642 141.486C140.298 141.487 139.967 141.612 139.71 141.839C139.452 142.066 139.285 142.378 139.241 142.719C139.241 143.446 139.241 144.25 139.241 145.015C139.241 146.546 139.241 148.077 139.241 149.608C139.241 150.374 139.241 151.139 139.241 151.905C139.212 152.262 139.228 152.622 139.287 152.976C139.382 153.287 139.579 153.556 139.845 153.742C140.128 153.921 140.46 154.007 140.795 153.987H141.859H144.071L161.011 154.071L189.693 154.247L209.029 154.4L214.288 154.461H209.029H189.693L160.996 154.431L144.056 154.369H140.726C140.312 154.394 139.901 154.284 139.555 154.056C139.206 153.814 138.952 153.46 138.835 153.053C138.766 152.664 138.746 152.268 138.774 151.874C138.774 151.108 138.774 150.343 138.774 149.577C138.774 148.046 138.774 146.516 138.774 144.985C138.774 144.219 138.774 143.454 138.774 142.688C138.83 142.25 139.043 141.848 139.374 141.556C139.705 141.265 140.131 141.104 140.573 141.104L204.375 141.456L215.39 141.54C215.801 141.515 216.212 141.543 216.615 141.624C217.013 141.754 217.348 142.027 217.557 142.39C217.755 142.727 217.841 143.118 217.802 143.507C217.802 143.867 217.802 144.219 217.802 144.571C217.802 145.957 217.802 147.227 217.802 148.399C217.802 149.57 217.802 150.557 217.802 151.461C217.802 151.897 217.802 152.303 217.802 152.678C217.83 153.02 217.774 153.364 217.641 153.68C217.542 153.892 217.398 154.079 217.22 154.23C217.041 154.38 216.832 154.491 216.608 154.553C216.44 154.567 216.272 154.551 216.11 154.507Z" fill="#E0E0E0"/>
<path d="M158.61 166.714L138.922 166.625L138.905 170.238L158.593 170.327L158.61 166.714Z" fill="#29A882"/>
<path opacity="0.1" d="M158.61 166.714L138.922 166.625L138.905 170.238L158.593 170.327L158.61 166.714Z" fill="black"/>
<path d="M215.955 188.886C216.11 188.868 216.263 188.84 216.414 188.802C216.627 188.734 216.823 188.622 216.99 188.473C217.156 188.324 217.289 188.141 217.379 187.937C217.499 187.628 217.546 187.295 217.517 186.965C217.517 186.59 217.517 186.199 217.517 185.748C217.517 184.867 217.517 183.849 217.517 182.686V177.825C217.553 177.473 217.475 177.118 217.295 176.814C217.101 176.508 216.806 176.28 216.46 176.171C216.079 176.101 215.691 176.077 215.305 176.102H204.289L140.487 175.865C140.144 175.866 139.812 175.991 139.555 176.218C139.297 176.445 139.13 176.757 139.086 177.097C139.086 177.863 139.086 178.628 139.086 179.394C139.086 180.925 139.086 182.456 139.086 183.987C139.086 184.752 139.086 185.518 139.086 186.283C139.057 186.639 139.073 186.996 139.132 187.347C139.224 187.66 139.421 187.93 139.691 188.113C139.972 188.296 140.305 188.382 140.64 188.358H143.97L160.91 188.45L189.592 188.626L208.928 188.779L214.187 188.84H208.928H189.592L160.91 188.756L143.97 188.687H140.64C140.225 188.715 139.814 188.605 139.469 188.373C139.12 188.132 138.866 187.778 138.749 187.37C138.68 186.981 138.66 186.585 138.688 186.192C138.688 185.426 138.688 184.661 138.688 183.895C138.688 182.364 138.688 180.833 138.688 179.302C138.688 178.537 138.688 177.771 138.688 176.967C138.742 176.53 138.954 176.128 139.284 175.836C139.614 175.544 140.039 175.383 140.479 175.383L204.282 175.735L215.297 175.819C215.707 175.794 216.119 175.822 216.522 175.903C216.919 176.033 217.255 176.306 217.463 176.669C217.661 177.006 217.747 177.397 217.708 177.786C217.708 178.146 217.708 178.506 217.708 178.85C217.708 180.236 217.708 181.507 217.708 182.678C217.708 183.849 217.708 184.837 217.708 185.74C217.708 186.176 217.708 186.582 217.708 186.957C217.738 187.299 217.682 187.644 217.547 187.96C217.448 188.171 217.304 188.358 217.126 188.509C216.948 188.659 216.739 188.77 216.514 188.832C216.335 188.894 216.143 188.912 215.955 188.886Z" fill="#E0E0E0"/>
<path d="M180.359 146.29L144.352 146.127L144.336 149.503L180.344 149.666L180.359 146.29Z" fill="#29A882"/>
<path opacity="0.2" d="M180.359 146.29L144.352 146.127L144.336 149.503L180.344 149.666L180.359 146.29Z" fill="white"/>
<path d="M147.607 182.64C147.584 182.947 147.472 183.242 147.283 183.487C147.095 183.731 146.839 183.915 146.547 184.015C146.255 184.116 145.94 184.128 145.641 184.051C145.342 183.974 145.072 183.811 144.865 183.582C144.658 183.353 144.522 183.069 144.475 182.763C144.428 182.458 144.472 182.146 144.601 181.866C144.73 181.585 144.939 181.349 145.201 181.185C145.463 181.022 145.767 180.94 146.076 180.948C146.502 180.972 146.902 181.163 147.189 181.479C147.475 181.796 147.625 182.213 147.607 182.64Z" fill="#29A882"/>
<path d="M152.482 182.661C152.497 182.877 152.468 183.094 152.395 183.298C152.323 183.502 152.21 183.688 152.062 183.847C151.915 184.005 151.736 184.131 151.538 184.217C151.339 184.304 151.125 184.348 150.909 184.348C150.693 184.348 150.479 184.304 150.28 184.217C150.082 184.131 149.903 184.005 149.756 183.847C149.608 183.688 149.495 183.502 149.423 183.298C149.35 183.094 149.321 182.877 149.336 182.661C149.321 182.446 149.35 182.229 149.423 182.025C149.495 181.821 149.608 181.634 149.756 181.476C149.903 181.318 150.082 181.192 150.28 181.105C150.479 181.019 150.693 180.975 150.909 180.975C151.125 180.975 151.339 181.019 151.538 181.105C151.736 181.192 151.915 181.318 152.062 181.476C152.21 181.634 152.323 181.821 152.395 182.025C152.468 182.229 152.497 182.446 152.482 182.661Z" fill="#29A882"/>
<path d="M157.364 182.684C157.342 182.992 157.229 183.287 157.041 183.531C156.852 183.776 156.596 183.96 156.304 184.06C156.012 184.161 155.697 184.173 155.398 184.096C155.1 184.019 154.83 183.856 154.623 183.627C154.415 183.398 154.28 183.114 154.233 182.808C154.186 182.503 154.23 182.191 154.359 181.911C154.488 181.63 154.696 181.393 154.958 181.23C155.221 181.067 155.525 180.985 155.833 180.993C156.259 181.018 156.658 181.21 156.944 181.526C157.23 181.842 157.381 182.258 157.364 182.684Z" fill="#29A882"/>
<path d="M162.243 182.708C162.221 183.016 162.108 183.31 161.92 183.555C161.731 183.799 161.475 183.983 161.183 184.084C160.891 184.184 160.576 184.197 160.277 184.12C159.978 184.043 159.709 183.88 159.501 183.651C159.294 183.422 159.159 183.137 159.112 182.832C159.065 182.527 159.109 182.214 159.238 181.934C159.367 181.653 159.575 181.417 159.837 181.254C160.099 181.091 160.404 181.008 160.712 181.016C161.138 181.042 161.537 181.233 161.823 181.55C162.109 181.866 162.26 182.282 162.243 182.708Z" fill="#29A882"/>
<path d="M167.119 182.724C167.098 183.032 166.986 183.327 166.799 183.573C166.611 183.819 166.356 184.004 166.064 184.105C165.772 184.207 165.456 184.22 165.157 184.144C164.857 184.068 164.587 183.905 164.379 183.677C164.171 183.448 164.035 183.163 163.987 182.858C163.94 182.552 163.983 182.24 164.112 181.959C164.241 181.678 164.45 181.441 164.712 181.277C164.974 181.114 165.279 181.031 165.588 181.04C166.012 181.065 166.41 181.256 166.696 181.57C166.982 181.885 167.134 182.299 167.119 182.724Z" fill="#29A882"/>
<path d="M172.002 182.747C171.981 183.053 171.871 183.347 171.685 183.592C171.499 183.837 171.246 184.023 170.956 184.126C170.666 184.228 170.353 184.244 170.054 184.171C169.755 184.098 169.484 183.939 169.275 183.714C169.065 183.489 168.926 183.208 168.874 182.905C168.822 182.602 168.86 182.29 168.983 182.009C169.106 181.727 169.309 181.487 169.566 181.319C169.824 181.151 170.125 181.062 170.432 181.063C170.864 181.078 171.271 181.265 171.565 181.58C171.859 181.896 172.016 182.315 172.002 182.747Z" fill="#29A882"/>
<path d="M176.876 182.769C176.892 182.985 176.862 183.201 176.79 183.405C176.718 183.609 176.604 183.796 176.457 183.954C176.309 184.112 176.131 184.238 175.932 184.325C175.734 184.411 175.52 184.455 175.303 184.455C175.087 184.455 174.873 184.411 174.675 184.325C174.476 184.238 174.298 184.112 174.15 183.954C174.003 183.796 173.889 183.609 173.817 183.405C173.745 183.201 173.715 182.985 173.73 182.769C173.715 182.553 173.745 182.336 173.817 182.132C173.889 181.928 174.003 181.742 174.15 181.583C174.298 181.425 174.476 181.299 174.675 181.213C174.873 181.127 175.087 181.082 175.303 181.082C175.52 181.082 175.734 181.127 175.932 181.213C176.131 181.299 176.309 181.425 176.457 181.583C176.604 181.742 176.718 181.928 176.79 182.132C176.862 182.336 176.892 182.553 176.876 182.769Z" fill="#29A882"/>
<path d="M181.756 182.791C181.735 183.098 181.625 183.392 181.439 183.637C181.253 183.882 181 184.068 180.71 184.17C180.42 184.273 180.106 184.289 179.808 184.216C179.509 184.143 179.238 183.984 179.029 183.759C178.819 183.534 178.68 183.253 178.628 182.95C178.576 182.647 178.614 182.335 178.737 182.053C178.86 181.772 179.063 181.532 179.32 181.364C179.578 181.196 179.879 181.107 180.186 181.107C180.618 181.123 181.025 181.31 181.319 181.625C181.613 181.941 181.77 182.36 181.756 182.791Z" fill="#29A882"/>
<path d="M186.631 182.815C186.609 183.124 186.498 183.419 186.311 183.665C186.123 183.911 185.867 184.096 185.575 184.197C185.283 184.299 184.968 184.312 184.669 184.236C184.369 184.16 184.098 183.997 183.891 183.768C183.683 183.54 183.547 183.255 183.499 182.95C183.452 182.644 183.495 182.332 183.624 182.051C183.753 181.77 183.961 181.533 184.224 181.369C184.486 181.206 184.791 181.123 185.1 181.131C185.524 181.157 185.922 181.348 186.208 181.662C186.494 181.977 186.645 182.391 186.631 182.815Z" fill="#29A882"/>
<g opacity="0.2">
<path d="M147.607 182.64C147.584 182.947 147.472 183.242 147.283 183.487C147.095 183.731 146.839 183.915 146.547 184.015C146.255 184.116 145.94 184.128 145.641 184.051C145.342 183.974 145.072 183.811 144.865 183.582C144.658 183.353 144.522 183.069 144.475 182.763C144.428 182.458 144.472 182.146 144.601 181.866C144.73 181.585 144.939 181.349 145.201 181.185C145.463 181.022 145.767 180.94 146.076 180.948C146.502 180.972 146.902 181.163 147.189 181.479C147.475 181.796 147.625 182.213 147.607 182.64Z" fill="white"/>
<path d="M152.482 182.663C152.497 182.879 152.468 183.096 152.395 183.3C152.323 183.504 152.21 183.69 152.062 183.849C151.915 184.007 151.736 184.133 151.538 184.219C151.339 184.305 151.125 184.35 150.909 184.35C150.693 184.35 150.479 184.305 150.28 184.219C150.082 184.133 149.903 184.007 149.756 183.849C149.608 183.69 149.495 183.504 149.423 183.3C149.35 183.096 149.321 182.879 149.336 182.663C149.321 182.447 149.35 182.231 149.423 182.027C149.495 181.823 149.608 181.636 149.756 181.478C149.903 181.32 150.082 181.194 150.28 181.107C150.479 181.021 150.693 180.977 150.909 180.977C151.125 180.977 151.339 181.021 151.538 181.107C151.736 181.194 151.915 181.32 152.062 181.478C152.21 181.636 152.323 181.823 152.395 182.027C152.468 182.231 152.497 182.447 152.482 182.663Z" fill="white"/>
<path d="M157.368 182.684C157.346 182.992 157.233 183.287 157.045 183.531C156.856 183.776 156.6 183.96 156.308 184.06C156.016 184.161 155.701 184.173 155.402 184.096C155.103 184.019 154.834 183.856 154.626 183.627C154.419 183.398 154.284 183.114 154.237 182.808C154.19 182.503 154.234 182.191 154.363 181.911C154.492 181.63 154.7 181.393 154.962 181.23C155.224 181.067 155.529 180.985 155.837 180.993C156.263 181.018 156.662 181.21 156.948 181.526C157.234 181.842 157.385 182.258 157.368 182.684Z" fill="white"/>
<path d="M162.243 182.708C162.221 183.016 162.108 183.31 161.92 183.555C161.731 183.799 161.475 183.983 161.183 184.084C160.891 184.184 160.576 184.197 160.277 184.12C159.978 184.043 159.709 183.88 159.501 183.651C159.294 183.422 159.159 183.137 159.112 182.832C159.065 182.527 159.109 182.214 159.238 181.934C159.367 181.653 159.575 181.417 159.837 181.254C160.099 181.091 160.404 181.008 160.712 181.016C161.138 181.042 161.537 181.233 161.823 181.55C162.109 181.866 162.26 182.282 162.243 182.708Z" fill="white"/>
<path d="M167.119 182.724C167.098 183.032 166.986 183.327 166.799 183.573C166.611 183.819 166.356 184.004 166.064 184.105C165.772 184.207 165.456 184.22 165.157 184.144C164.857 184.068 164.587 183.905 164.379 183.677C164.171 183.448 164.035 183.163 163.987 182.858C163.94 182.552 163.983 182.24 164.112 181.959C164.241 181.678 164.45 181.441 164.712 181.277C164.974 181.114 165.279 181.031 165.588 181.04C166.012 181.065 166.41 181.256 166.696 181.57C166.982 181.885 167.134 182.299 167.119 182.724Z" fill="white"/>
<path d="M172.002 182.747C171.981 183.053 171.871 183.347 171.685 183.592C171.499 183.837 171.246 184.023 170.956 184.126C170.666 184.228 170.353 184.244 170.054 184.171C169.755 184.098 169.484 183.939 169.275 183.714C169.065 183.489 168.926 183.208 168.874 182.905C168.822 182.602 168.86 182.29 168.983 182.009C169.106 181.727 169.309 181.487 169.566 181.319C169.824 181.151 170.125 181.062 170.432 181.063C170.864 181.078 171.271 181.265 171.565 181.58C171.859 181.896 172.016 182.315 172.002 182.747Z" fill="white"/>
<path d="M176.876 182.771C176.892 182.986 176.862 183.203 176.79 183.407C176.718 183.611 176.604 183.798 176.457 183.956C176.309 184.114 176.131 184.24 175.932 184.327C175.734 184.413 175.52 184.457 175.303 184.457C175.087 184.457 174.873 184.413 174.675 184.327C174.476 184.24 174.298 184.114 174.15 183.956C174.003 183.798 173.889 183.611 173.817 183.407C173.745 183.203 173.715 182.986 173.73 182.771C173.715 182.555 173.745 182.338 173.817 182.134C173.889 181.93 174.003 181.744 174.15 181.585C174.298 181.427 174.476 181.301 174.675 181.215C174.873 181.129 175.087 181.084 175.303 181.084C175.52 181.084 175.734 181.129 175.932 181.215C176.131 181.301 176.309 181.427 176.457 181.585C176.604 181.744 176.718 181.93 176.79 182.134C176.862 182.338 176.892 182.555 176.876 182.771Z" fill="white"/>
<path d="M181.756 182.791C181.735 183.098 181.625 183.392 181.439 183.637C181.253 183.882 181 184.068 180.71 184.17C180.42 184.273 180.106 184.289 179.808 184.216C179.509 184.143 179.238 183.984 179.029 183.759C178.819 183.534 178.68 183.253 178.628 182.95C178.576 182.647 178.614 182.335 178.737 182.053C178.86 181.772 179.063 181.532 179.32 181.364C179.578 181.196 179.879 181.107 180.186 181.107C180.618 181.123 181.025 181.31 181.319 181.625C181.613 181.941 181.77 182.36 181.756 182.791Z" fill="white"/>
<path d="M186.631 182.815C186.609 183.124 186.498 183.419 186.311 183.665C186.123 183.911 185.867 184.096 185.575 184.197C185.283 184.299 184.968 184.312 184.669 184.236C184.369 184.16 184.098 183.997 183.891 183.768C183.683 183.54 183.547 183.255 183.499 182.95C183.452 182.644 183.495 182.332 183.624 182.051C183.753 181.77 183.961 181.533 184.224 181.369C184.486 181.206 184.791 181.123 185.1 181.131C185.524 181.157 185.922 181.348 186.208 181.662C186.494 181.977 186.645 182.391 186.631 182.815Z" fill="white"/>
</g>
<path d="M179.703 72.3094C180.235 72.0752 180.686 71.6898 181.001 71.2012C181.315 70.7126 181.479 70.1423 181.472 69.5613C181.491 69.1836 181.434 68.8058 181.303 68.451C181.172 68.0962 180.971 67.7717 180.71 67.4973C180.45 67.223 180.137 67.0045 179.789 66.8552C179.442 66.7059 179.067 66.6289 178.689 66.6289C178.311 66.6289 177.937 66.7059 177.589 66.8552C177.242 67.0045 176.928 67.223 176.668 67.4973C176.408 67.7717 176.206 68.0962 176.075 68.451C175.944 68.8058 175.887 69.1836 175.907 69.5613C175.895 70.1481 176.057 70.7252 176.373 71.2198C176.69 71.7143 177.145 72.1041 177.683 72.34C173.396 72.983 173.587 77.6372 173.587 77.6372L183.722 77.6831C183.722 77.6831 183.959 72.9447 179.703 72.3094Z" fill="#29A882"/>
<path opacity="0.1" d="M179.703 72.3094C180.235 72.0752 180.686 71.6898 181.001 71.2012C181.315 70.7126 181.479 70.1423 181.472 69.5613C181.491 69.1836 181.434 68.8058 181.303 68.451C181.172 68.0962 180.971 67.7717 180.71 67.4973C180.45 67.223 180.137 67.0045 179.789 66.8552C179.442 66.7059 179.067 66.6289 178.689 66.6289C178.311 66.6289 177.937 66.7059 177.589 66.8552C177.242 67.0045 176.928 67.223 176.668 67.4973C176.408 67.7717 176.206 68.0962 176.075 68.451C175.944 68.8058 175.887 69.1836 175.907 69.5613C175.895 70.1481 176.057 70.7252 176.373 71.2198C176.69 71.7143 177.145 72.1041 177.683 72.34C173.396 72.983 173.587 77.6372 173.587 77.6372L183.722 77.6831C183.722 77.6831 183.959 72.9447 179.703 72.3094Z" fill="black"/>
<path d="M196.169 80.6854L160.047 80.5215L160.027 84.8388L196.15 85.0027L196.169 80.6854Z" fill="#29A882"/>
<path opacity="0.2" d="M196.169 80.6854L160.047 80.5215L160.027 84.8388L196.15 85.0027L196.169 80.6854Z" fill="white"/>
<path d="M63.3717 103.057H63.0119L61.9709 103.133C61.4075 103.167 60.8472 103.241 60.2945 103.355C59.9364 103.406 59.5813 103.474 59.2305 103.562L58.044 103.891C56.0245 104.511 54.1191 105.454 52.4024 106.685C50.1342 108.332 48.2402 110.439 46.845 112.87C46.025 114.271 45.3724 115.764 44.9007 117.318C44.4051 119.006 44.1197 120.749 44.051 122.508C44.0054 123.431 44.0208 124.357 44.097 125.279C44.097 125.746 44.2271 126.213 44.2883 126.687C44.3398 127.166 44.4294 127.639 44.5562 128.103C45.2446 131.175 46.6412 134.044 48.6348 136.48C50.6283 138.916 53.1636 140.852 56.0384 142.135C58.1191 143.033 60.3492 143.534 62.6139 143.612C64.953 143.741 67.2944 143.405 69.5032 142.625L70.1768 142.372H70.2686L70.3452 142.418L79.9979 147.317L79.7146 147.562C78.6813 144.362 77.6861 141.262 76.7216 138.284V138.17L76.8058 138.085C79.1474 135.727 80.8857 132.838 81.8733 129.665C82.7678 126.764 83.0288 123.704 82.6388 120.694C82.2918 118.018 81.4315 115.434 80.105 113.085C78.9616 111.066 77.4866 109.255 75.7418 107.726C74.3023 106.516 72.709 105.502 71.0035 104.71C69.713 104.154 68.369 103.73 66.9924 103.447L65.4614 103.194L64.3515 103.11L63.6779 103.064H63.4482C63.5246 103.056 63.6016 103.056 63.6779 103.064H64.3592L65.4691 103.11L67.0001 103.332C68.3938 103.595 69.7561 104.003 71.0647 104.549C72.7996 105.332 74.4216 106.344 75.8873 107.558C77.6641 109.08 79.1704 110.891 80.3423 112.916C81.7065 115.291 82.5932 117.91 82.9526 120.625C83.375 123.682 83.1322 126.794 82.2407 129.749C81.2467 132.989 79.4815 135.939 77.0967 138.346L77.1426 138.147C78.1071 141.124 79.1099 144.225 80.151 147.417L80.2964 147.884L79.8601 147.662L70.2074 142.77H70.3758L69.6869 143.023C67.4356 143.815 65.0508 144.158 62.6675 144.033C60.3539 143.945 58.0772 143.426 55.9542 142.502C51.9046 140.768 48.5354 137.754 46.3628 133.921C45.363 132.151 44.6329 130.242 44.1965 128.257C44.077 127.78 43.9875 127.297 43.9286 126.81C43.8673 126.328 43.7678 125.853 43.7448 125.378C43.5377 122.655 43.8255 119.916 44.5945 117.295C45.078 115.72 45.7487 114.209 46.5924 112.794C48.0209 110.341 49.9543 108.219 52.2646 106.57C54.0096 105.336 55.947 104.4 57.998 103.799L59.1998 103.493C59.5536 103.411 59.9112 103.347 60.2715 103.302C60.83 103.198 61.3955 103.137 61.9632 103.118L63.0119 103.08C63.1312 103.064 63.2514 103.056 63.3717 103.057Z" fill="#29A882"/>
<path d="M67.7347 120.909H66.3185L63.2566 116.607V113.782C63.2566 113.782 61.0674 113.644 61.3276 117.341C61.5879 121.039 61.3276 120.097 61.3276 120.097C61.3276 120.097 56.6812 120.097 56.2984 120.518C55.9157 120.939 55.8927 125.425 55.8391 127.928C55.8098 128.532 55.9829 129.127 56.3311 129.621C56.6792 130.115 57.1823 130.478 57.7605 130.653C57.9226 130.698 58.0899 130.721 58.258 130.722C59.4216 130.722 65.3387 129.781 65.3387 129.781H67.7806L67.7347 120.909Z" fill="#29A882"/>
<path d="M71.7837 120.15L70.9111 129.826H68.4922V120.349L71.7837 120.15Z" fill="#29A882"/>
<path d="M100.639 317.135V310.59L88.9042 310.506L88.8047 320.404L89.5319 320.457C92.7699 320.664 106.005 320.97 108.179 320.296C110.598 319.546 100.639 317.135 100.639 317.135Z" fill="#29A882"/>
<path d="M108.455 319.683C108.455 319.791 104.061 319.882 98.6495 319.882C93.2376 319.882 88.8438 319.791 88.8438 319.683C88.8438 319.576 93.2376 319.484 98.6495 319.484C104.061 319.484 108.455 319.576 108.455 319.683Z" fill="black"/>
<path d="M100.843 318.475C100.744 318.421 100.843 318.077 101.08 317.709C101.318 317.342 101.639 317.189 101.716 317.265C101.792 317.342 101.631 317.633 101.402 317.947C101.172 318.26 100.943 318.528 100.843 318.475Z" fill="black"/>
<path d="M101.596 318.904C101.489 318.904 101.542 318.475 101.772 318.069C102.002 317.664 102.308 317.419 102.392 317.48C102.476 317.541 102.339 317.886 102.124 318.246C101.91 318.605 101.696 318.942 101.596 318.904Z" fill="black"/>
<path d="M92.3772 319.654C92.3313 319.654 92.1552 319.517 91.9026 319.226C91.5943 318.852 91.2508 318.508 90.8769 318.2C90.5092 317.906 90.0712 317.714 89.6062 317.641C89.2464 317.595 89.0168 317.641 88.9938 317.595C88.9708 317.549 89.1928 317.389 89.6138 317.358C90.1695 317.346 90.7115 317.53 91.1448 317.878C91.5508 318.209 91.8932 318.611 92.1552 319.065C92.3313 319.402 92.4231 319.624 92.3772 319.654Z" fill="black"/>
<path d="M100.884 317.242C100.937 317.334 100.738 317.564 100.401 317.686C100.065 317.809 99.766 317.763 99.7507 317.686C99.7354 317.61 99.9727 317.449 100.264 317.342C100.554 317.235 100.822 317.151 100.884 317.242Z" fill="black"/>
<path d="M100.698 316.608C100.698 316.723 100.391 316.815 99.9934 316.822C99.5954 316.83 99.2815 316.738 99.2892 316.631C99.2969 316.524 99.6107 316.424 99.9934 316.416C100.376 316.409 100.682 316.501 100.698 316.608Z" fill="black"/>
<path d="M129.533 317.135V310.59L117.799 310.506L117.699 320.304L118.426 320.358C121.664 320.564 134.907 320.97 137.073 320.296C139.492 319.546 129.533 317.135 129.533 317.135Z" fill="#29A882"/>
<path d="M137.35 319.699C137.35 319.806 132.964 319.898 127.544 319.898C122.125 319.898 117.746 319.806 117.746 319.699C117.746 319.592 122.132 319.5 127.544 319.5C132.956 319.5 137.35 319.592 137.35 319.699Z" fill="black"/>
<path d="M129.742 318.475C129.65 318.421 129.742 318.077 129.979 317.709C130.217 317.342 130.538 317.189 130.615 317.265C130.691 317.342 130.531 317.633 130.301 317.947C130.071 318.26 129.842 318.528 129.742 318.475Z" fill="black"/>
<path d="M130.491 318.904C130.391 318.904 130.437 318.475 130.674 318.069C130.912 317.664 131.21 317.419 131.295 317.48C131.379 317.541 131.233 317.886 131.019 318.246C130.805 318.605 130.598 318.942 130.491 318.904Z" fill="black"/>
<path d="M121.276 319.654C121.23 319.654 121.061 319.517 120.801 319.226C120.493 318.852 120.149 318.508 119.775 318.2C119.408 317.906 118.97 317.714 118.505 317.641C118.153 317.595 117.915 317.641 117.892 317.595C117.869 317.549 118.091 317.389 118.512 317.358C119.068 317.346 119.61 317.53 120.043 317.878C120.451 318.207 120.794 318.61 121.054 319.065C121.23 319.402 121.322 319.624 121.276 319.654Z" fill="black"/>
<path d="M129.782 317.242C129.836 317.334 129.637 317.564 129.3 317.686C128.963 317.809 128.664 317.763 128.649 317.686C128.634 317.61 128.871 317.449 129.162 317.342C129.453 317.235 129.721 317.151 129.782 317.242Z" fill="black"/>
<path d="M129.612 316.608C129.612 316.723 129.306 316.815 128.908 316.822C128.51 316.83 128.203 316.738 128.211 316.631C128.219 316.524 128.525 316.424 128.908 316.416C129.29 316.409 129.612 316.501 129.612 316.608Z" fill="black"/>
<path d="M172.769 122.778C172.463 122.464 171.705 122.617 171.705 122.617C171.781 122.176 171.781 121.726 171.705 121.285C171.567 120.856 170.603 120.941 170.603 120.941C170.559 120.58 170.559 120.215 170.603 119.854C170.611 119.774 170.593 119.693 170.554 119.623C170.514 119.553 170.454 119.498 170.381 119.463C169.925 119.277 169.434 119.188 168.942 119.203C168.352 118.782 170.741 115.437 171.629 114.365C172.517 113.293 172.356 112.459 171.567 112.459C171.024 112.459 168.238 115.674 167.38 116.753C166.523 117.833 164.25 120.833 164.173 118.437C164.096 116.041 163.132 114.235 162.527 113.929C161.922 113.623 161.279 114.342 161.609 115.008C161.898 115.765 162.078 116.558 162.144 117.366C162.228 118.009 162.199 118.661 162.06 119.295C161.806 120.473 161.461 121.63 161.027 122.755H160.966C160.966 122.755 144.263 138.776 143.053 139.917C141.974 140.943 120.265 138.7 115.91 138.241C114.43 138.024 112.935 137.922 111.439 137.934C109.548 138.019 109.212 138.287 107.329 138.31C102.573 138.362 97.8285 138.779 93.1366 139.557C91.0121 139.918 89.0277 140.856 87.3997 142.268C85.7718 143.68 84.5629 145.512 83.9049 147.564C79.5188 161.267 69.5829 193.7 67.8299 211.919C66.5053 214.321 65.3095 216.792 64.2475 219.321C63.0151 222.674 63.3136 222.789 63.727 222.865C64.8446 223.072 66.1152 217.055 66.5898 218.51C67.0644 219.964 64.1786 225.682 65.3498 225.851C66.8807 226.065 68.0978 219.727 68.2433 219.222C68.3887 218.716 69.1465 218.877 69.0088 219.352C68.7868 220.025 66.6358 227.167 68.1361 227.397C68.9628 227.52 69.0547 226.011 69.0547 226.011C69.0547 226.011 70.5856 219.176 71.2822 219.313C71.9788 219.451 71.2363 223.485 70.8842 224.833C70.5321 226.18 71.022 226.861 71.7415 226.532C72.2314 226.302 73.4026 222.207 73.7241 220.875C74.0456 219.543 74.8493 215.853 75.9287 217.989C77.008 220.125 78.6461 221.365 79.3197 221.396C79.4715 221.378 79.6146 221.316 79.7306 221.216C79.8465 221.117 79.93 220.985 79.9704 220.837C80.0107 220.69 80.006 220.534 79.9569 220.389C79.9078 220.244 79.8165 220.118 79.6948 220.025C79.1154 219.46 78.6181 218.815 78.2175 218.112C77.8604 217.563 77.6013 216.957 77.452 216.32C77.1435 215.051 76.964 213.753 76.9161 212.447L76.7937 211.682C78.5083 203.192 83.4457 178.276 90.5723 162.361L93.4964 168.378L94.7671 172.833L86.9745 192.07L120.212 191.633L115.251 172.542L121.276 152.639C127.79 152.785 144.515 153.03 147.302 151.767C150.808 150.236 168.942 127.332 168.942 127.332C170.124 126.414 171.256 125.433 172.333 124.393C172.333 124.393 173.435 123.467 172.769 122.778Z" fill="#FFBE9D"/>
<path d="M85.5133 177.855C86.4778 174.563 91.4305 158.289 91.4305 158.289C91.4305 158.289 93.8647 171.555 93.2217 173.154C92.6302 174.524 91.9315 175.845 91.1319 177.104C85.5133 185.655 86.2482 189.934 86.2482 189.934L120.197 188.901C120.274 184.155 117.464 173.116 116.883 171.356C116.301 169.595 118.238 163.831 118.238 163.831C118.238 163.831 122.065 159.934 121.927 157.929C121.854 156.127 121.632 154.335 121.261 152.57L141.929 153.336L141.278 139.328L111.593 136.357C110.56 139.274 101.213 137.842 101.213 137.842C91.1243 138.179 90.4966 140.032 86.3018 143.293C82.1069 146.554 75.1641 174.54 75.1641 174.54L85.5133 177.855Z" fill="#29A882"/>
<path d="M105.583 174.539C104.994 174.645 104.395 174.675 103.799 174.631C102.689 174.631 101.166 174.555 99.4895 174.386C97.8131 174.218 96.2974 173.981 95.2181 173.766C94.623 173.69 94.0394 173.541 93.4805 173.322C94.0789 173.322 94.6761 173.379 95.264 173.491C96.351 173.628 97.859 173.82 99.5277 173.988C101.196 174.157 102.712 174.271 103.807 174.348C104.403 174.356 104.998 174.42 105.583 174.539Z" fill="black"/>
<path d="M107.909 171.654C107.32 171.943 106.698 172.156 106.056 172.29C103.002 173.092 99.8513 173.466 96.6943 173.4C96.041 173.421 95.3877 173.359 94.75 173.216C95.3947 173.134 96.0446 173.101 96.6943 173.116C97.8961 173.078 99.5495 172.994 101.371 172.78C103.193 172.565 104.816 172.259 105.964 172.014C106.602 171.844 107.252 171.723 107.909 171.654Z" fill="black"/>
<path d="M119.332 158.779C119.317 159.363 119.237 159.943 119.095 160.509C118.896 161.573 118.59 163.028 118.199 164.62C117.809 166.212 117.434 167.682 117.097 168.677C116.962 169.247 116.761 169.799 116.5 170.323C116.543 169.741 116.65 169.166 116.821 168.608C117.112 167.414 117.442 166.036 117.809 164.528C118.176 163.02 118.529 161.642 118.819 160.448C118.923 159.873 119.095 159.313 119.332 158.779Z" fill="black"/>
<path d="M85.8725 175.903C84.1016 175.629 82.3539 175.222 80.6443 174.686C78.8974 174.277 77.1832 173.74 75.5156 173.078C77.2857 173.356 79.033 173.763 80.7438 174.295C82.4912 174.702 84.2055 175.24 85.8725 175.903Z" fill="black"/>
<path d="M121.628 152.403C121.339 152.453 121.044 152.453 120.755 152.403C119.956 152.321 119.17 152.133 118.42 151.844C117.168 151.374 116.028 150.646 115.074 149.709C114.119 148.772 113.372 147.645 112.878 146.402C112.333 145.034 112.101 143.561 112.197 142.092C112.231 140.88 112.594 139.7 113.246 138.678C113.704 137.989 114.39 137.483 115.182 137.246C115.394 137.188 115.613 137.16 115.833 137.162C115.986 137.162 116.063 137.162 116.063 137.162C116.063 137.162 115.741 137.162 115.228 137.369C114.501 137.638 113.884 138.141 113.475 138.8C112.434 140.439 112.143 143.432 113.253 146.226C113.77 147.543 114.579 148.726 115.619 149.686C116.471 150.471 117.452 151.103 118.52 151.553C119.522 151.949 120.564 152.234 121.628 152.403Z" fill="black"/>
<path d="M139.469 153.061C139.278 150.714 139.216 148.357 139.285 146.003C139.225 143.651 139.297 141.297 139.5 138.953C139.691 141.298 139.753 143.652 139.683 146.003C139.748 148.358 139.676 150.715 139.469 153.061Z" fill="black"/>
<path d="M111.394 137.215C111.478 135.508 111.654 133.579 111.654 133.579C111.654 133.579 115.879 133.112 116.132 128.749C116.385 124.386 116.132 114.32 116.132 114.32L108.477 110.4L99.9805 117.083L101.289 138.9L109.082 139.397C109.678 139.414 110.256 139.193 110.689 138.784C111.122 138.375 111.376 137.811 111.394 137.215Z" fill="#FFBE9D"/>
<path d="M112.15 125.296C112.15 125.296 112.15 125.38 112.081 125.479C112.024 125.552 111.951 125.609 111.867 125.646C111.783 125.684 111.691 125.7 111.599 125.694C111.109 125.694 110.635 125.127 110.466 124.469C110.386 124.15 110.386 123.816 110.466 123.497C110.482 123.358 110.532 123.224 110.612 123.109C110.693 122.994 110.8 122.901 110.926 122.839C111.029 122.796 111.144 122.796 111.247 122.839C111.323 122.876 111.385 122.938 111.423 123.015C111.477 123.145 111.423 123.229 111.423 123.221C111.423 123.214 111.423 123.145 111.347 123.068C111.307 123.013 111.248 122.975 111.181 122.961C111.115 122.947 111.046 122.958 110.987 122.992C110.893 123.048 110.815 123.128 110.76 123.223C110.705 123.318 110.675 123.425 110.673 123.535C110.609 123.82 110.609 124.115 110.673 124.4C110.826 124.997 111.239 125.479 111.607 125.525C111.679 125.535 111.752 125.53 111.822 125.51C111.891 125.49 111.956 125.457 112.013 125.411C112.104 125.349 112.135 125.288 112.15 125.296Z" fill="#EB996E"/>
<path d="M118.757 111.961C118.168 109.956 116.032 108.961 114.088 108.41C111.125 107.567 107.926 107.2 105.032 108.264C102.139 109.328 98.6633 111.196 98.6633 114.388C96.9562 114.25 95.9764 115.743 95.3028 117.595C94.8721 118.724 94.6141 119.911 94.5373 121.117C94.323 125.296 93.1518 131.068 90.442 134.13C88.9111 135.837 86.7907 137.016 85.918 139.144C85.1526 140.989 85.5506 143.178 84.8387 145.046C84.2034 146.692 82.8025 147.863 81.7768 149.294C80.7318 150.918 80.1168 152.781 79.9896 154.708C79.8624 156.635 80.2271 158.562 81.0496 160.31C81.878 162.012 83.0443 163.528 84.4774 164.765C85.9106 166.002 87.5806 166.934 89.3857 167.505C92.9612 168.593 96.7741 168.63 100.37 167.612C103.069 166.967 105.587 165.719 107.734 163.961C109.931 162.167 111.44 159.668 112.006 156.888C112.549 153.765 111.676 150.588 111.026 147.48C108.99 137.659 109.571 137.146 112.143 128.029C112.205 127.868 112.235 127.7 112.281 127.539C112.327 127.378 112.35 127.302 112.381 127.179C112.454 126.819 112.492 126.452 112.495 126.085C112.12 126.224 111.712 126.254 111.32 126.17C110.928 126.086 110.569 125.892 110.283 125.61C109.997 125.31 109.798 124.938 109.706 124.534C109.615 124.129 109.634 123.708 109.763 123.314C109.943 122.883 110.212 122.494 110.553 122.174C110.893 121.853 111.297 121.608 111.738 121.453C112.587 121.101 113.498 120.918 114.333 120.527C116.101 119.685 117.326 117.94 118.16 116.11C118.846 114.842 119.058 113.371 118.757 111.961Z" fill="black"/>
<path d="M112.455 125.504C112.617 125.743 112.751 126 112.853 126.269C113.083 126.752 113.389 127.433 113.726 128.221L113.787 128.367H113.627L112.861 128.436C112.333 128.436 111.889 128.535 111.368 128.528C111.323 128.517 111.281 128.496 111.246 128.465C111.212 128.434 111.185 128.395 111.169 128.352C111.147 128.282 111.147 128.207 111.169 128.137C111.187 128.034 111.21 127.932 111.238 127.831L111.376 127.287C111.445 126.925 111.553 126.571 111.698 126.231C111.683 126.601 111.629 126.968 111.537 127.326L111.43 127.869C111.391 128.053 111.323 128.336 111.43 128.313C111.812 128.313 112.356 128.229 112.861 128.198L113.627 128.13L113.527 128.298C113.198 127.532 112.922 126.813 112.762 126.315C112.621 126.061 112.517 125.788 112.455 125.504Z" fill="#29A882"/>
<path d="M86.2479 189.934L120.197 188.9L134.971 246.572L132.253 312.726H114.303L116.5 247.981L103.372 207.831L105.393 315.29L87.2507 315.558L85.3446 214.552C85.2604 211.743 84.3419 205.412 84.6863 202.626L86.2479 189.934Z" fill="black"/>
<path d="M107.889 208.65C107.333 208.685 106.776 208.651 106.228 208.55C105.202 208.428 103.801 208.214 102.263 207.907C100.724 207.601 99.3464 207.249 98.3513 206.966C97.8193 206.849 97.3047 206.664 96.8203 206.415C96.8203 206.3 99.3158 206.897 102.378 207.517C105.44 208.137 107.904 208.535 107.889 208.65Z" fill="black"/>
<path d="M132.067 309.097C132.067 309.205 128.002 309.297 122.989 309.297C117.975 309.297 113.902 309.205 113.902 309.097C113.902 308.99 117.967 308.898 122.989 308.898C128.01 308.898 132.067 308.983 132.067 309.097Z" fill="black"/>
<path d="M105.231 312.496C105.231 312.611 101.281 312.695 96.4122 312.695C91.5438 312.695 87.6016 312.611 87.6016 312.496C87.6016 312.381 91.5514 312.297 96.4122 312.297C101.273 312.297 105.231 312.389 105.231 312.496Z" fill="black"/>
<path d="M102.89 312.221C102.783 312.221 102.309 288.744 101.826 259.785C101.344 230.827 101.061 207.334 101.16 207.334C101.26 207.334 101.75 230.804 102.224 259.778C102.699 288.751 103.005 312.221 102.89 312.221Z" fill="black"/>
<path d="M129.658 309.097C129.65 308.993 129.65 308.888 129.658 308.783V307.865C129.658 307.038 129.719 305.851 129.765 304.343C129.872 301.282 130.025 296.834 130.217 291.384C130.63 280.422 131.212 265.311 131.847 248.631C131.847 248.47 131.847 248.317 131.847 248.18V248.233C127.828 232.158 124.192 217.568 121.552 207.012L118.49 194.527C118.138 193.064 117.87 191.924 117.678 191.128C117.586 190.753 117.525 190.462 117.472 190.24C117.442 190.14 117.424 190.037 117.418 189.934C117.458 190.03 117.488 190.13 117.51 190.232C117.571 190.446 117.648 190.737 117.755 191.105C117.961 191.87 118.26 193.034 118.643 194.488C119.408 197.443 120.488 201.699 121.835 206.943C124.499 217.491 128.173 232.043 132.245 248.141V248.195C132.245 248.333 132.245 248.493 132.245 248.647C131.564 265.327 130.944 280.43 130.492 291.391C130.255 296.849 130.056 301.266 129.918 304.343C129.842 305.874 129.78 307.038 129.742 307.865C129.742 308.255 129.696 308.561 129.689 308.783C129.69 308.889 129.679 308.994 129.658 309.097Z" fill="black"/>
<path d="M123.801 246.832C122.511 247.256 121.183 247.551 119.836 247.712C118.182 247.996 116.774 248.195 116.138 248.225V248.072C116.345 248.133 116.452 248.172 116.452 248.202C116.452 248.233 116.322 248.202 116.108 248.202H115.648L116.108 248.064C116.705 247.888 118.113 247.598 119.767 247.299C121.093 247.011 122.444 246.855 123.801 246.832Z" fill="black"/>
<path d="M123.486 249.031C122.292 249.085 121.095 249.031 119.911 248.87C118.715 248.845 117.524 248.715 116.352 248.479C118.744 248.284 121.152 248.47 123.486 249.031Z" fill="black"/>
<path opacity="0.2" d="M86.1016 191.151C86.5036 191.667 87.01 192.093 87.5878 192.4C88.1655 192.708 88.8015 192.89 89.4543 192.935C90.8216 193.096 92.2047 193.071 93.565 192.858C102.33 191.886 111.615 190.99 120.196 188.9C109.089 189.52 97.3541 189.314 86.247 189.934L86.1322 190.883" fill="black"/>
<g opacity="0.2">
<path d="M97.5469 206.805L103.808 231.101L103.372 207.83L97.5469 206.805Z" fill="black"/>
</g>
</svg>
