<svg width="70" height="70" viewBox="0 0 70 70" fill="none" xmlns="http://www.w3.org/2000/svg">
<path d="M0 35C0 15.67 15.67 0 35 0C54.33 0 70 15.67 70 35C70 54.33 54.33 70 35 70C15.67 70 0 54.33 0 35Z" fill="#076B5F"/>
<path d="M43.4539 25.6901L41.2549 22.2154C40.7914 21.6744 40.1554 21.3379 39.4435 21.3379H31.8457C31.1338 21.3379 30.4977 21.6744 30.0343 22.2154L27.8353 25.6883C27.3719 26.2293 26.7763 26.624 26.0645 26.624H21.1079C20.4069 26.624 19.7346 26.9024 19.239 27.3981C18.7433 27.8938 18.4648 28.566 18.4648 29.267V45.1252C18.4648 45.8262 18.7433 46.4985 19.239 46.9941C19.7346 47.4898 20.4069 47.7682 21.1079 47.7682H50.1813C50.8822 47.7682 51.5545 47.4898 52.0502 46.9941C52.5458 46.4985 52.8243 45.8262 52.8243 45.1252V29.267C52.8243 28.566 52.5458 27.8938 52.0502 27.3981C51.5545 26.9024 50.8822 26.624 50.1813 26.624H45.3075C44.5939 26.624 43.9155 26.2293 43.4539 25.6901Z" stroke="#F3F8F7" stroke-width="1.5" stroke-linecap="round" stroke-linejoin="round"/>
<path d="M35.6427 42.4808C37.3952 42.4808 39.0759 41.7846 40.315 40.5455C41.5542 39.3063 42.2503 37.6257 42.2503 35.8732C42.2503 34.1208 41.5542 32.4401 40.315 31.2009C39.0759 29.9618 37.3952 29.2656 35.6427 29.2656C33.8903 29.2656 32.2096 29.9618 30.9705 31.2009C29.7313 32.4401 29.0352 34.1208 29.0352 35.8732C29.0352 37.6257 29.7313 39.3063 30.9705 40.5455C32.2096 41.7846 33.8903 42.4808 35.6427 42.4808Z" stroke="#F3F8F7" stroke-width="1.5" stroke-linecap="round" stroke-linejoin="round"/>
<path d="M24.744 26.4573V24.6406H22.7617V26.4573" stroke="#F3F8F7" stroke-width="1.5" stroke-linecap="round" stroke-linejoin="round"/>
</svg>
