<svg width="24" height="25" viewBox="0 0 24 25" fill="none" xmlns="http://www.w3.org/2000/svg">
<path d="M16.6003 8.5981C16.6003 6.56912 15.8167 5.54215 15.4659 5.18371C15.3977 3.70665 14.5352 3.01268 14.0907 2.75148C13.9481 1.46434 12.7974 0.5 11.7984 0.5C10.7995 0.5 9.6488 1.46485 9.50572 2.75148C9.06174 3.01268 8.19873 3.70614 8.12999 5.18371C7.77867 5.54215 6.99609 6.56861 6.99609 8.5981C6.99609 11.1846 8.94717 13.1179 10.6915 13.1179C10.9257 13.1179 11.1151 12.9279 11.1151 12.6937C11.1151 12.4595 10.9252 12.2696 10.6915 12.2696C9.55765 12.2696 7.84333 10.8048 7.84333 8.59759C7.84333 7.21676 8.24099 6.41994 8.52509 6.02585L11.3743 9.63881V17.2603C11.3743 17.494 11.5642 17.684 11.7979 17.684C12.0316 17.684 12.2215 17.4945 12.2215 17.2603V9.63881L15.0708 6.02585C15.3559 6.42146 15.753 7.21778 15.753 8.59759C15.753 10.8048 14.0387 12.2696 12.9043 12.2696C12.6706 12.2696 12.4812 12.4595 12.4812 12.6937C12.4812 12.9279 12.6706 13.1179 12.9043 13.1179C14.6492 13.1174 16.6003 11.1846 16.6003 8.5981ZM13.25 2.8747L12.2221 4.10787V1.44499C12.72 1.66189 13.1884 2.22349 13.25 2.8747ZM11.3748 1.44499V4.10787L10.3468 2.8747C10.4079 2.22349 10.8764 1.66189 11.3748 1.44499ZM8.97976 5.23361C9.02405 4.27131 9.50623 3.77641 9.81426 3.55951L11.3748 5.43167V8.27071L8.97976 5.23361ZM12.2221 5.43167L13.7831 3.55849C14.0907 3.77539 14.5733 4.2708 14.6171 5.23361L12.2221 8.27071V5.43167Z" fill="#076B5F" stroke="#076B5F" stroke-width="0.5"/>
<path d="M9.19793 16.7301L8.96014 16.5101C6.09921 13.8671 6.03709 13.916 5.69036 14.193C5.60278 14.2627 5.21022 14.5983 4.90829 14.8574C4.84312 14.7485 4.79577 14.6548 4.77845 14.585C4.63233 13.9995 4.32734 11.5892 4.1858 10.3957C4.16085 10.1824 3.98011 10.0215 3.76524 10.0215H2.42413C2.18992 10.0215 2 10.2114 2 10.4456V16.9042C2 17.3961 2.7281 18.4169 5.11604 21.2733C5.48772 21.7178 5.80848 22.1012 5.91235 22.2442C6.26927 22.7351 6.26926 23.0731 6.26926 24.0752C6.26926 24.3094 6.45918 24.4988 6.69288 24.4988C6.92709 24.4988 7.11701 24.3094 7.11701 24.0752C7.11701 22.9993 7.11701 22.4596 6.59768 21.7458C6.47701 21.5793 6.17914 21.2229 5.76622 20.7295C4.92866 19.7285 2.97656 17.3935 2.84723 16.8849V10.8692H3.38899C3.50202 11.7969 3.7963 14.1523 3.95618 14.7907C4.01524 15.027 4.20821 15.3488 4.45974 15.6955C4.47247 15.7184 4.48825 15.7408 4.50556 15.7617C4.50759 15.7637 4.50962 15.7653 4.51115 15.7668C5.15269 16.6313 6.13486 17.6303 6.39351 17.8884C6.55898 18.0539 6.82729 18.0539 6.99277 17.8884C7.15824 17.7235 7.15824 17.4551 6.99277 17.2897C6.49787 16.7948 5.87059 16.1161 5.40828 15.5448C5.62314 15.3605 5.8482 15.1675 6.00909 15.0311C6.54014 15.4302 7.89805 16.6843 8.38328 17.1328L8.62258 17.3538C9.00139 17.7021 9.88171 18.6328 9.88171 19.7514V24.0762C9.88171 24.3104 10.0716 24.4998 10.3058 24.4998C10.5395 24.4998 10.7295 24.3104 10.7295 24.0762V19.7514C10.7305 18.2968 9.65871 17.1537 9.19793 16.7301Z" fill="#076B5F" stroke="#076B5F" stroke-width="0.5"/>
<path d="M21.1696 10.0215H19.8285C19.6136 10.0215 19.4329 10.1819 19.4074 10.3957C19.2664 11.5887 18.9614 13.9995 18.8153 14.585C18.7975 14.6543 18.7506 14.7485 18.6849 14.8574C18.383 14.5983 17.9915 14.2632 17.9034 14.193C17.5572 13.916 17.4945 13.8666 14.6336 16.5101L14.3958 16.7301C13.9351 17.1537 12.8633 18.2973 12.8633 19.7514V24.0762C12.8633 24.3104 13.0532 24.4998 13.2869 24.4998C13.5206 24.4998 13.7105 24.3104 13.7105 24.0762V19.7514C13.7105 18.6328 14.5909 17.7021 14.9692 17.3538L15.2084 17.1328C15.6942 16.6843 17.0516 15.4302 17.5831 15.0311C17.7435 15.168 17.9691 15.3605 18.1839 15.5448C17.7216 16.1161 17.0938 16.7953 16.6 17.2897C16.4345 17.4551 16.4345 17.7235 16.6 17.8884C16.7654 18.0539 17.0338 18.0539 17.1987 17.8884C17.4574 17.6303 18.4401 16.6313 19.0811 15.7668C19.0831 15.7653 19.0851 15.7637 19.0867 15.7617C19.105 15.7408 19.1198 15.7189 19.133 15.6955C19.3845 15.3488 19.578 15.027 19.6371 14.7907C19.7964 14.1523 20.0907 11.7969 20.2038 10.8692H20.7455V16.8849C20.6162 17.394 18.6636 19.7285 17.8265 20.7295C17.4136 21.2229 17.1152 21.5793 16.9946 21.7458C16.4762 22.4596 16.4762 22.9993 16.4762 24.0752C16.4762 24.3094 16.6656 24.4988 16.8999 24.4988C17.1341 24.4988 17.3235 24.3094 17.3235 24.0752C17.3235 23.0726 17.3235 22.7351 17.6799 22.2442C17.7843 22.1012 18.105 21.7178 18.4767 21.2733C20.8651 18.4174 21.5932 17.3966 21.5932 16.9042V10.4451C21.5937 10.2114 21.4038 10.0215 21.1696 10.0215Z" fill="#076B5F" stroke="#076B5F" stroke-width="0.5"/>
</svg>
