<svg width="24" height="24" viewBox="0 0 24 24" fill="none" xmlns="http://www.w3.org/2000/svg">
<g clip-path="url(#clip0_688_44)">
<path d="M20.2061 0.109375C21.256 0.0275471 22.0978 0.0171765 22.6758 0.162109C22.9639 0.234381 23.1816 0.344107 23.3271 0.499023C23.4716 0.652851 23.5498 0.855575 23.5498 1.12305C23.5498 1.98281 23.2026 3.91056 22.2285 5.94043L22.2197 5.95996L22.2275 5.97949C22.8684 7.70968 23.001 9.77405 23.001 12C23.001 14.3222 22.8585 16.4699 22.1416 18.2441L22.1328 18.2646L22.1436 18.2852C23.1285 20.2333 23.5498 22.0519 23.5498 22.8779C23.5497 23.1451 23.4715 23.3473 23.3271 23.501C23.1816 23.6559 22.9641 23.7666 22.6758 23.8389C22.0978 23.9837 21.2559 23.9715 20.2061 23.8896C18.1121 23.7263 15.206 23.2842 12.001 23.2842C8.79592 23.2842 5.88986 23.7263 3.7959 23.8896C2.74607 23.9715 1.90419 23.9837 1.32617 23.8389C1.03787 23.7666 0.820339 23.6559 0.674805 23.501C0.530471 23.3473 0.452238 23.1451 0.452148 22.8779C0.452148 22.0178 0.799258 20.0885 1.77344 18.0586L1.78223 18.04L1.77441 18.0195C1.13364 16.2893 1.00098 14.2254 1.00098 12C1.00098 9.67464 1.03905 7.52662 1.66602 5.75195L1.67285 5.73242L1.66406 5.71387C0.770782 3.76787 0.452148 1.95041 0.452148 1.12305C0.452157 0.855558 0.530387 0.652856 0.674805 0.499023C0.820342 0.344081 1.03797 0.23341 1.32617 0.161133C1.90419 0.0162444 2.74608 0.027551 3.7959 0.109375C5.88987 0.272593 8.79589 0.714838 12.001 0.714844C15.206 0.714844 18.1121 0.272595 20.2061 0.109375Z" fill="#076B5F" stroke="#F3F8F7" stroke-width="0.1"/>
<mask id="path-2-inside-1_688_44" fill="white">
<path d="M12 23.3346C18.4057 23.3346 23.5986 25.1012 23.5986 22.8775C23.5986 22.0409 23.1741 20.215 22.1871 18.2628C22.9079 16.4789 23.0496 14.323 23.0496 12.0003C23.0496 9.77357 22.9172 7.70171 22.273 5.96248C23.2499 3.92699 23.5986 1.99162 23.5986 1.12313C23.5986 -1.10136 18.4057 0.665242 12 0.665242"/>
</mask>
<path d="M12 23.3346C18.4057 23.3346 23.5986 25.1012 23.5986 22.8775C23.5986 22.0409 23.1741 20.215 22.1871 18.2628C22.9079 16.4789 23.0496 14.323 23.0496 12.0003C23.0496 9.77357 22.9172 7.70171 22.273 5.96248C23.2499 3.92699 23.5986 1.99162 23.5986 1.12313C23.5986 -1.10136 18.4057 0.665242 12 0.665242" fill="#F3F8F7"/>
<path d="M22.1871 18.2628L21.26 17.8882L21.09 18.3089L21.2947 18.7139L22.1871 18.2628ZM22.273 5.96248L21.3715 5.52981L21.188 5.91214L21.3353 6.30982L22.273 5.96248ZM12 24.3346C15.1555 24.3346 17.9255 24.7655 20.1237 24.9369C21.1632 25.0179 22.1653 25.0487 22.9303 24.857C23.327 24.7576 23.758 24.5757 24.0919 24.2201C24.4482 23.8408 24.5986 23.3664 24.5986 22.8775H22.5986C22.5986 22.9444 22.5868 22.9012 22.6341 22.851C22.659 22.8244 22.6343 22.8693 22.4441 22.917C22.0352 23.0195 21.3387 23.0256 20.2792 22.9429C18.2796 22.787 15.2503 22.3346 12 22.3346V24.3346ZM24.5986 22.8775C24.5986 21.8298 24.1078 19.8454 23.0796 17.8116L21.2947 18.7139C22.2404 20.5846 22.5986 22.2519 22.5986 22.8775H24.5986ZM23.1143 18.6374C23.9134 16.6596 24.0496 14.3333 24.0496 12.0003H22.0496C22.0496 14.3128 21.9024 16.2981 21.26 17.8882L23.1143 18.6374ZM24.0496 12.0003C24.0496 9.76033 23.9214 7.53368 23.2108 5.61514L21.3353 6.30982C21.9131 7.86973 22.0496 9.7868 22.0496 12.0003H24.0496ZM23.1746 6.39514C24.2048 4.24846 24.5986 2.16576 24.5986 1.12313H22.5986C22.5986 1.81749 22.295 3.60553 21.3715 5.52981L23.1746 6.39514ZM24.5986 1.12313C24.5986 0.634185 24.4482 0.15973 24.0921 -0.219651C23.7582 -0.575336 23.3272 -0.757333 22.9304 -0.856834C22.1654 -1.0487 21.1632 -1.01799 20.1237 -0.936975C17.9254 -0.765637 15.1555 -0.334758 12 -0.334758V1.66524C15.2502 1.66524 18.2796 1.21282 20.2792 1.05698C21.3386 0.974404 22.0351 0.980551 22.4439 1.08309C22.6341 1.13079 22.6588 1.17573 22.6339 1.14921C22.5868 1.099 22.5986 1.05595 22.5986 1.12313H24.5986Z" fill="#076B5F" mask="url(#path-2-inside-1_688_44)"/>
<path d="M11.999 0.66567C6.13368 0.66567 1.28833 -0.813339 0.511719 0.644294C2.49284 1.27804 6.8893 1.71902 11.999 1.71902C17.1087 1.71902 21.5056 1.27804 23.4863 0.644675C22.7097 -0.813339 17.8643 0.66567 11.999 0.66567Z" fill="#076B5F"/>
<path d="M23.4872 0.644511L23.4865 0.64375C23.4636 0.600237 23.4362 0.559771 23.4058 0.521495C23.4036 0.518876 23.4021 0.516258 23.4021 0.516258C23.3698 0.476125 23.3353 0.44161 23.299 0.408618C23.296 0.406381 23.293 0.403382 23.2903 0.401097C23.2524 0.368486 23.2112 0.338112 23.1673 0.310358C23.1643 0.308834 23.1621 0.307358 23.1595 0.305502C22.15 -0.319626 19.4706 0.166394 16.0173 0.469746C15.9914 0.471983 15.9648 0.474269 15.9389 0.476506C15.799 0.488503 15.6576 0.500119 15.5155 0.512116C15.4672 0.515877 15.4188 0.519638 15.3704 0.523351C15.2463 0.53273 15.1211 0.542109 14.9947 0.551106C14.9362 0.555248 14.8777 0.559342 14.8188 0.563103C14.7003 0.570958 14.5807 0.578861 14.4607 0.586336C14.3947 0.590477 14.3302 0.594191 14.2646 0.597952C14.1487 0.604712 14.0317 0.61033 13.9143 0.616328C13.8446 0.619708 13.7752 0.623469 13.7055 0.626087C13.5885 0.631324 13.4703 0.635466 13.3526 0.639941C13.2821 0.642179 13.2127 0.645178 13.1422 0.647463C13.0147 0.651605 12.8865 0.654223 12.7586 0.656842C12.6971 0.657984 12.636 0.659841 12.5741 0.660983C12.3836 0.663983 12.1928 0.665506 12 0.665506V1.71886C17.1097 1.71886 21.5061 1.27788 23.4872 0.644511Z" fill="#076B5F"/>
<path d="M1.73242 6.1875C2.44262 7.68355 2.88962 9.72801 2.88965 12C2.88965 14.1598 2.48586 16.1145 1.83594 17.5879C1.31545 15.9692 1.19923 14.0674 1.19922 12.001C1.19922 9.8316 1.23358 7.85137 1.73242 6.1875Z" fill="#F3F8F7" stroke="#076B5F" stroke-width="0.5"/>
<path d="M20.8594 12.0008C20.8594 14.4582 21.3739 16.6726 22.1974 18.2363C22.9084 16.458 23.0493 14.3123 23.0493 12.0012C23.0493 9.77445 22.917 7.70259 22.2727 5.96336C22.4456 5.60259 22.5982 5.24563 22.7336 4.89648C21.6026 6.43962 20.8594 9.04549 20.8594 12.0008Z" fill="#076B5F"/>
<path d="M12.0007 20.9055C10.131 20.9059 8.37301 20.1776 7.0511 18.8554C4.32151 16.1265 4.32151 11.6854 7.0511 8.95583C7.27086 8.73608 7.62672 8.73608 7.84648 8.95583C8.06623 9.17559 8.06623 9.53145 7.84648 9.7512C5.55601 12.0421 5.55601 15.7695 7.84648 18.06C10.1373 20.3501 13.8641 20.3501 16.1549 18.06C17.2645 16.9504 17.8754 15.4748 17.8754 13.9054C17.8754 12.3361 17.2645 10.8608 16.1549 9.7512C15.9352 9.53145 15.9352 9.17559 16.1549 8.95583C16.3747 8.73608 16.7305 8.73608 16.9503 8.95583C18.2721 10.2777 19.0004 12.0357 19.0004 13.9058C19.0004 15.7751 18.2725 17.5335 16.9503 18.8553C15.6281 20.1772 13.8705 20.9055 12.0007 20.9055Z" fill="#F3F8F7"/>
<path d="M16.9496 18.8553C18.2715 17.5335 18.9997 15.7751 18.9997 13.9058C18.9997 12.0357 18.2718 10.2777 16.9496 8.95583C16.7299 8.73608 16.374 8.73608 16.1542 8.95583C15.9345 9.17559 15.9345 9.53145 16.1542 9.7512C17.2639 10.8608 17.8747 12.3365 17.8747 13.9054C17.8747 15.4752 17.2638 16.9504 16.1542 18.06C15.0086 19.2052 13.5045 19.7775 12 19.7775V20.9055C13.8698 20.9055 15.6278 20.1776 16.9496 18.8553Z" fill="#076B5F"/>
<path d="M12.1255 17.9686C12.1255 18.0379 12.0692 18.0938 12.0003 18.0938C11.9313 18.0938 11.875 18.0379 11.875 17.9686V7.28112C11.875 7.21214 11.9313 7.15625 12.0003 7.15625C12.0692 7.15625 12.1255 7.21214 12.1255 7.28112V17.9686Z" fill="#076B5F"/>
<path d="M11.9998 18.8102C12.2716 18.8102 12.4919 18.5899 12.4919 18.3182C12.4919 18.0465 12.2716 17.8262 11.9998 17.8262C11.7281 17.8262 11.5078 18.0465 11.5078 18.3182C11.5078 18.5899 11.7281 18.8102 11.9998 18.8102Z" fill="#076B5F"/>
<path d="M12.0029 4.43359C11.4832 4.68858 11.0898 5.83572 11.0898 6.3832C11.0898 6.93068 11.4836 7.3848 12.0029 7.48192V4.43359Z" fill="#F3F8F7"/>
<path d="M11.9961 4.43359C12.5158 4.68858 12.9088 5.83572 12.9088 6.3832C12.9088 6.93068 12.5154 7.3848 11.9961 7.48192V4.43359Z" fill="#076B5F"/>
<path d="M14.3002 7.85099C13.7523 7.66422 12.6633 8.19747 12.2759 8.58447C11.8893 8.97147 11.8462 9.57108 12.1447 10.0064L14.3002 7.85099Z" fill="#F3F8F7"/>
<path d="M14.2922 7.8457C14.4789 8.39318 13.9457 9.48258 13.5591 9.86957C13.1717 10.2566 12.5725 10.2993 12.1367 10.0012L14.2922 7.8457Z" fill="#076B5F"/>
<path d="M14.3002 10.3822C13.7523 10.1955 12.6633 10.7287 12.2759 11.1157C11.8893 11.5027 11.8462 12.1023 12.1447 12.5377L14.3002 10.3822Z" fill="#F3F8F7"/>
<path d="M14.2922 10.377C14.4789 10.9244 13.9457 12.0138 13.5591 12.4008C13.1717 12.7878 12.5725 12.8306 12.1367 12.5325L14.2922 10.377Z" fill="#076B5F"/>
<path d="M14.3002 12.9135C13.7523 12.7267 12.6633 13.26 12.2759 13.647C11.8893 14.034 11.8462 14.6336 12.1447 15.0689L14.3002 12.9135Z" fill="#F3F8F7"/>
<path d="M14.2922 12.9082C14.4789 13.4557 13.9457 14.5451 13.5591 14.9321C13.1717 15.3191 12.5725 15.3618 12.1367 15.0637L14.2922 12.9082Z" fill="#076B5F"/>
<path d="M13.9177 15.8285C13.4673 15.6751 12.5715 16.1134 12.2535 16.4315C11.9347 16.7498 11.8998 17.2426 12.1451 17.6007L13.9177 15.8285Z" fill="#F3F8F7"/>
<path d="M13.9128 15.8242C14.0666 16.2746 13.6286 17.1705 13.3102 17.4885C12.9919 17.8065 12.4995 17.8417 12.1406 17.5965L13.9128 15.8242Z" fill="#076B5F"/>
<path d="M9.69922 7.85099C10.2471 7.66422 11.3361 8.19747 11.7235 8.58447C12.1101 8.97147 12.1532 9.57108 11.8547 10.0064L9.69922 7.85099Z" fill="#F3F8F7"/>
<path d="M9.70646 7.8457C9.51969 8.39318 10.0529 9.48258 10.4396 9.86957C10.8269 10.2566 11.4262 10.2993 11.8619 10.0012L9.70646 7.8457Z" fill="#076B5F"/>
<path d="M9.69922 10.3822C10.2471 10.1955 11.3361 10.7287 11.7235 11.1157C12.1101 11.5027 12.1532 12.1023 11.8547 12.5377L9.69922 10.3822Z" fill="#F3F8F7"/>
<path d="M9.70646 10.377C9.51969 10.9244 10.0529 12.0138 10.4396 12.4008C10.8269 12.7878 11.4262 12.8306 11.8619 12.5325L9.70646 10.377Z" fill="#076B5F"/>
<path d="M9.69922 12.9135C10.2471 12.7267 11.3361 13.26 11.7235 13.647C12.1101 14.034 12.1532 14.6336 11.8547 15.0689L9.69922 12.9135Z" fill="#F3F8F7"/>
<path d="M9.70646 12.9082C9.51969 13.4557 10.0529 14.5451 10.4396 14.9321C10.8269 15.3191 11.4262 15.3618 11.8619 15.0637L9.70646 12.9082Z" fill="#076B5F"/>
<path d="M10.0859 15.8285C10.5363 15.6751 11.4322 16.1134 11.7502 16.4315C12.0689 16.7498 12.1038 17.2426 11.8585 17.6007L10.0859 15.8285Z" fill="#F3F8F7"/>
<path d="M10.0903 15.8242C9.93657 16.2746 10.3746 17.1705 10.6929 17.4885C11.0113 17.8065 11.5037 17.8417 11.8626 17.5965L10.0903 15.8242Z" fill="#076B5F"/>
</g>
<defs>
<clipPath id="clip0_688_44">
<rect width="24" height="24" fill="white"/>
</clipPath>
</defs>
</svg>
