<svg width="24" height="24" viewBox="0 0 24 24" fill="none" xmlns="http://www.w3.org/2000/svg">
<path d="M18 6H20" stroke="#076B5F" stroke-linecap="round" stroke-linejoin="round"/>
<path d="M14 6L4 6" stroke="#076B5F" stroke-linecap="round" stroke-linejoin="round"/>
<path d="M17.4129 4.58681C17.6039 4.77131 17.7562 4.992 17.8611 5.23601C17.9659 5.48001 18.0211 5.74245 18.0234 6.00801C18.0257 6.27357 17.9751 6.53693 17.8745 6.78272C17.7739 7.02852 17.6254 7.25182 17.4377 7.4396C17.2499 7.62739 17.0266 7.7759 16.7808 7.87646C16.535 7.97702 16.2716 8.02762 16.0061 8.02532C15.7405 8.02301 15.4781 7.96784 15.2341 7.86302C14.99 7.7582 14.7694 7.60583 14.5849 7.41481C14.2205 7.03761 14.019 6.53241 14.0235 6.00801C14.0281 5.48362 14.2384 4.98199 14.6092 4.61118C14.98 4.24036 15.4817 4.03002 16.0061 4.02547C16.5305 4.02091 17.0357 4.2225 17.4129 4.58681Z" stroke="#076B5F" stroke-linecap="round" stroke-linejoin="round"/>
<path d="M10 12H20" stroke="#076B5F" stroke-linecap="round" stroke-linejoin="round"/>
<path d="M6 12H4" stroke="#076B5F" stroke-linecap="round" stroke-linejoin="round"/>
<path d="M6.58714 13.4132C6.39612 13.2287 6.24375 13.008 6.13894 12.764C6.03412 12.52 5.97895 12.2575 5.97664 11.992C5.97433 11.7264 6.02493 11.4631 6.1255 11.2173C6.22606 10.9715 6.37456 10.7482 6.56235 10.5604C6.75013 10.3726 6.97344 10.2241 7.21923 10.1235C7.46502 10.023 7.72838 9.97238 7.99394 9.97468C8.2595 9.97699 8.52194 10.0322 8.76595 10.137C9.00996 10.2418 9.23064 10.3942 9.41514 10.5852C9.77945 10.9624 9.98104 11.4676 9.97649 11.992C9.97193 12.5164 9.76159 13.018 9.39078 13.3888C9.01996 13.7596 8.51834 13.97 7.99394 13.9745C7.46955 13.9791 6.96434 13.7775 6.58714 13.4132Z" stroke="#076B5F" stroke-linecap="round" stroke-linejoin="round"/>
<path d="M18 18H20" stroke="#076B5F" stroke-linecap="round" stroke-linejoin="round"/>
<path d="M14 18H4" stroke="#076B5F" stroke-linecap="round" stroke-linejoin="round"/>
<path d="M17.4129 16.5868C17.6039 16.7713 17.7562 16.992 17.8611 17.236C17.9659 17.48 18.0211 17.7425 18.0234 18.008C18.0257 18.2736 17.9751 18.5369 17.8745 18.7827C17.7739 19.0285 17.6254 19.2518 17.4377 19.4396C17.2499 19.6274 17.0266 19.7759 16.7808 19.8765C16.535 19.977 16.2716 20.0276 16.0061 20.0253C15.7405 20.023 15.4781 19.9678 15.2341 19.863C14.99 19.7582 14.7694 19.6058 14.5849 19.4148C14.2205 19.0376 14.019 18.5324 14.0235 18.008C14.0281 17.4836 14.2384 16.982 14.6092 16.6112C14.98 16.2404 15.4817 16.03 16.0061 16.0255C16.5305 16.0209 17.0357 16.2225 17.4129 16.5868Z" stroke="#076B5F" stroke-linecap="round" stroke-linejoin="round"/>
</svg>
