<svg width="24" height="24" viewBox="0 0 24 24" fill="none" xmlns="http://www.w3.org/2000/svg">
<path d="M11.9981 21.375C10.4562 21.3753 8.93807 20.9954 7.57814 20.2688C6.21821 19.5421 5.05848 18.4913 4.20171 17.2094C3.34493 15.9275 2.81756 14.4541 2.66631 12.9196C2.51506 11.3852 2.74461 9.83714 3.33461 8.41261C3.92462 6.98809 4.85686 5.73108 6.04876 4.75294C7.24066 3.77481 8.65541 3.10574 10.1677 2.80503C11.6799 2.50432 13.243 2.58123 14.7185 3.02897C16.1939 3.47671 17.5361 4.28144 18.6262 5.37188C18.7311 5.47639 18.8143 5.60058 18.8711 5.73733C18.9279 5.87408 18.9571 6.02068 18.9571 6.16875C18.9571 6.31682 18.9279 6.46343 18.8711 6.60017C18.8143 6.73692 18.7311 6.86111 18.6262 6.96563C18.4128 7.17295 18.1269 7.28892 17.8293 7.28892C17.5318 7.28892 17.2459 7.17295 17.0325 6.96563C16.3741 6.30043 15.5899 5.77298 14.7255 5.41404C13.8612 5.05511 12.934 4.87186 11.9981 4.875C10.6372 4.87596 9.30503 5.26664 8.15916 6.00085C7.0133 6.73506 6.10168 7.78208 5.53211 9.01806C4.96255 10.2541 4.75888 11.6273 4.94518 12.9754C5.13148 14.3235 5.69997 15.59 6.58341 16.6252C7.46685 17.6604 8.62827 18.4209 9.93031 18.8168C11.2324 19.2127 12.6206 19.2275 13.9307 18.8593C15.2409 18.4911 16.4182 17.7554 17.3234 16.7392C18.2286 15.723 18.8238 14.4688 19.0387 13.125H11.9981C11.6997 13.125 11.4136 13.0065 11.2026 12.7955C10.9916 12.5845 10.8731 12.2984 10.8731 12C10.8731 11.7016 10.9916 11.4155 11.2026 11.2045C11.4136 10.9935 11.6997 10.875 11.9981 10.875H20.2481C20.5465 10.875 20.8326 10.9935 21.0436 11.2045C21.2546 11.4155 21.3731 11.7016 21.3731 12C21.3681 14.4849 20.3788 16.8666 18.6217 18.6237C16.8647 20.3807 14.483 21.37 11.9981 21.375Z" fill="#076B5F"/>
</svg>
