<svg width="24" height="24" viewBox="0 0 24 24" fill="none" xmlns="http://www.w3.org/2000/svg">
<path d="M18.75 15.0036C18.75 19.1456 16.142 21.7536 12 21.7536C7.858 21.7536 5.25 19.1456 5.25 15.0036C5.25 10.5576 10.089 4.5566 11.573 2.8216C11.6258 2.75995 11.6912 2.71045 11.765 2.67651C11.8387 2.64257 11.9189 2.625 12 2.625C12.0811 2.625 12.1613 2.64257 12.235 2.67651C12.3088 2.71045 12.3742 2.75995 12.427 2.8216C13.911 4.5566 18.75 10.5586 18.75 15.0036Z" stroke="#076B5F" stroke-width="1.5" stroke-linecap="round" stroke-linejoin="round"/>
<path d="M12.0682 15.9091V15.6023C12.0682 15.3902 12.1117 15.196 12.1989 15.0199C12.2879 14.8419 12.4167 14.6998 12.5852 14.5938C12.7557 14.4858 12.9621 14.4318 13.2045 14.4318C13.4508 14.4318 13.6572 14.4858 13.8239 14.5938C13.9905 14.6998 14.1165 14.8419 14.2017 15.0199C14.2869 15.196 14.3295 15.3902 14.3295 15.6023V15.9091C14.3295 16.1212 14.286 16.3163 14.1989 16.4943C14.1136 16.6705 13.9867 16.8125 13.8182 16.9205C13.6515 17.0265 13.447 17.0795 13.2045 17.0795C12.9583 17.0795 12.7509 17.0265 12.5824 16.9205C12.4138 16.8125 12.286 16.6705 12.1989 16.4943C12.1117 16.3163 12.0682 16.1212 12.0682 15.9091ZM12.6477 15.6023V15.9091C12.6477 16.0852 12.6894 16.2434 12.7727 16.3835C12.8561 16.5218 13 16.5909 13.2045 16.5909C13.4034 16.5909 13.5436 16.5218 13.625 16.3835C13.7083 16.2434 13.75 16.0852 13.75 15.9091V15.6023C13.75 15.4261 13.7102 15.2689 13.6307 15.1307C13.5511 14.9905 13.4091 14.9205 13.2045 14.9205C13.0057 14.9205 12.8627 14.9905 12.7756 15.1307C12.6903 15.2689 12.6477 15.4261 12.6477 15.6023ZM9.17045 12.5795V12.2727C9.17045 12.0606 9.21402 11.8665 9.30114 11.6903C9.39015 11.5123 9.51894 11.3703 9.6875 11.2642C9.85795 11.1562 10.0644 11.1023 10.3068 11.1023C10.553 11.1023 10.7595 11.1562 10.9261 11.2642C11.0928 11.3703 11.2188 11.5123 11.304 11.6903C11.3892 11.8665 11.4318 12.0606 11.4318 12.2727V12.5795C11.4318 12.7917 11.3883 12.9867 11.3011 13.1648C11.2159 13.3409 11.089 13.483 10.9205 13.5909C10.7538 13.697 10.5492 13.75 10.3068 13.75C10.0606 13.75 9.85322 13.697 9.68466 13.5909C9.5161 13.483 9.38826 13.3409 9.30114 13.1648C9.21402 12.9867 9.17045 12.7917 9.17045 12.5795ZM9.75 12.2727V12.5795C9.75 12.7557 9.79167 12.9138 9.875 13.054C9.95833 13.1922 10.1023 13.2614 10.3068 13.2614C10.5057 13.2614 10.6458 13.1922 10.7273 13.054C10.8106 12.9138 10.8523 12.7557 10.8523 12.5795V12.2727C10.8523 12.0966 10.8125 11.9394 10.733 11.8011C10.6534 11.661 10.5114 11.5909 10.3068 11.5909C10.108 11.5909 9.96496 11.661 9.87784 11.8011C9.79261 11.9394 9.75 12.0966 9.75 12.2727ZM9.38636 17L13.3864 11.1818H14.0341L10.0341 17H9.38636Z" fill="#076B5F"/>
</svg>
