<svg width="24" height="24" viewBox="0 0 24 24" fill="none" xmlns="http://www.w3.org/2000/svg">
<g clip-path="url(#clip0_688_2836)">
<path d="M12 2.25V4.5" stroke="#076B5F" stroke-width="1.5" stroke-linecap="round"/>
<path d="M12 19.5V21.75" stroke="#076B5F" stroke-width="1.5" stroke-linecap="round"/>
<path d="M18.8957 5.10938L17.3047 6.69937" stroke="#076B5F" stroke-width="1.5" stroke-linecap="round"/>
<path d="M6.69547 17.3047L5.10547 18.8947" stroke="#076B5F" stroke-width="1.5" stroke-linecap="round"/>
<path d="M21.75 12H19.5" stroke="#076B5F" stroke-width="1.5" stroke-linecap="round"/>
<path d="M4.5 12H2.25" stroke="#076B5F" stroke-width="1.5" stroke-linecap="round"/>
<path d="M18.8957 18.8957L17.3047 17.3047" stroke="#076B5F" stroke-width="1.5" stroke-linecap="round"/>
<path d="M6.69547 6.69937L5.10547 5.10938" stroke="#076B5F" stroke-width="1.5" stroke-linecap="round"/>
<path d="M12 15.75C12.9946 15.75 13.9484 15.3549 14.6517 14.6517C15.3549 13.9484 15.75 12.9946 15.75 12C15.75 11.0054 15.3549 10.0516 14.6517 9.34835C13.9484 8.64509 12.9946 8.25 12 8.25C11.0054 8.25 10.0516 8.64509 9.34835 9.34835C8.64509 10.0516 8.25 11.0054 8.25 12C8.25 12.9946 8.64509 13.9484 9.34835 14.6517C10.0516 15.3549 11.0054 15.75 12 15.75Z" stroke="#076B5F" stroke-width="1.5" stroke-linecap="round"/>
</g>
<defs>
<clipPath id="clip0_688_2836">
<rect width="24" height="24" fill="white"/>
</clipPath>
</defs>
</svg>
