<svg width="284" height="284" viewBox="0 0 284 284" fill="none" xmlns="http://www.w3.org/2000/svg">
<path d="M147.419 166.978C146.255 165.899 145.275 165.125 144.423 164.614C143.632 164.141 142.319 163.404 140.404 162.368C138.568 161.374 137.247 160.638 136.461 160.165C134.977 159.301 134.225 158.394 134.225 157.474C134.225 156.359 134.644 155.268 135.529 154.111C137.978 150.698 141.434 147.87 145.8 145.704C150.178 143.534 153.842 142.433 156.687 142.433H157.262C158.14 142.644 158.239 142.992 158.126 143.669C157.929 144.84 157.52 145.725 156.869 146.376C156.441 146.805 155.137 148.106 155.598 149.481L155.645 149.626L155.728 149.751C156.138 150.369 156.637 150.582 156.985 150.651C157.331 150.719 157.875 150.717 158.481 150.31C160.455 149.022 161.796 147.595 162.469 146.071C163.115 144.606 163.444 143.271 163.444 142.1C163.444 140.746 162.701 139.411 161.238 138.136C159.799 136.884 157.508 136.275 154.23 136.275C149.364 136.275 143.935 138.06 138.092 141.584C132.166 145.157 128.841 149.292 128.211 153.874C127.224 156.695 125.168 160.252 122.096 164.448L122.048 164.517C121.982 164.623 121.937 164.725 121.887 164.829C120.082 167.021 117.921 169.26 115.417 171.522C111.879 174.72 109.103 176.868 107.167 177.91C105.162 178.989 104.291 178.473 103.778 177.924C103.345 177.436 103.134 176.807 103.134 176C103.134 174.951 103.172 174.09 103.243 173.451C103.917 167.979 106.208 162.453 110.054 157.026L110.101 156.953C110.551 156.205 110.482 155.559 110.347 155.15C110.097 154.387 109.415 153.786 108.267 153.313C106.786 152.705 105.534 152.409 104.44 152.409C103.704 152.409 103.122 152.409 92.0271 164.346C90.0415 166.484 86.2596 169.913 80.8186 174.514C76.923 177.593 74.9871 178.239 74.0499 178.239C73.1837 178.239 72.7435 177.171 72.7435 175.063C72.7435 174.201 73.25 172.384 75.6616 168.609C77.6685 165.468 80.0257 162.612 82.6409 160.146C85.8288 157.339 89.2699 154.974 92.8696 153.117C96.3889 151.301 99.5555 150.381 102.28 150.381C104.767 150.381 106.388 150.949 107.096 152.066L107.266 152.333L107.55 152.475C108.546 152.979 109.14 152.702 109.467 152.378C109.865 151.981 109.919 151.417 109.919 150.866C109.919 149.311 109.01 147.874 107.214 146.599C105.541 145.411 103.529 144.81 101.231 144.81C99.0845 144.81 96.848 145.096 94.5831 145.662C92.278 146.239 89.2723 147.616 85.4004 149.874C81.609 152.087 77.9076 154.785 74.4049 157.897C70.836 161.066 68.2066 164.394 66.5996 167.769C65.821 169.326 65.4258 170.992 65.4258 172.724C65.4258 174.457 66.0127 176.234 67.1724 177.791C68.2871 179.292 69.6597 180.468 71.2525 181.285C72.8524 182.106 74.386 182.522 75.8083 182.522C78.7927 182.522 82.1226 181.06 85.7034 178.177C89.1327 175.418 92.1904 172.5 94.7914 169.503C95.118 169.127 95.4185 168.784 95.6954 168.467C95.1535 170.774 94.8813 173.02 94.8813 175.179C94.8813 176.435 95.0115 177.59 95.2671 178.613L95.2955 178.705C96.4622 182.12 98.8999 183.923 102.343 183.923C105.787 183.923 109.349 182.47 113.183 179.616C115.211 178.154 118.037 175.489 121.821 171.465C125.629 167.418 127.004 165.348 127.468 164.098C128.424 162.673 129.241 161.419 129.915 160.342C130.698 161.334 131.806 162.304 133.259 163.274C133.456 163.407 133.986 163.712 136.4 164.971C141.019 167.425 141.516 169.004 141.516 169.567C141.516 172.343 140.044 175.15 137.141 177.91C134.13 180.771 131.001 182.707 127.842 183.663C127.172 183.864 126.517 183.966 125.892 183.966C125.646 183.966 125.265 183.9 124.787 183.327C124.6 183.102 125.009 182.477 125.414 182.009L125.473 181.935C126.379 180.698 127.016 180.25 127.387 180.094C128.514 179.621 129.056 179.183 129.262 178.575C129.475 177.929 129.331 177.292 128.862 176.816C128.396 176.355 127.757 176.213 127.111 176.424L127.021 176.457C124.285 177.619 122.332 178.807 121.047 180.092L120.981 180.163C119.502 181.919 118.841 183.138 118.841 184.118C118.841 184.988 119.009 185.663 119.355 186.174C119.944 187.298 121.189 188.598 123.788 188.598C125.541 188.598 127.302 188.389 129.009 187.985C136.454 186.304 142.163 183.315 145.966 179.107C148.763 176.057 149.961 173.15 149.532 170.469C149.414 169.326 148.723 168.18 147.421 166.971L147.419 166.978Z" fill="#29A882"/>
<path d="M173.636 142.784C174.66 142.784 175.616 141.956 176.937 139.923C178.035 138.231 178.58 137 178.636 136.07L179.576 132.309V132.167C179.576 131.216 178.911 130.551 177.959 130.551C177.38 130.551 176.717 130.854 174.895 132.446L172.937 133.945C167.461 138.145 167.461 138.515 167.461 139.18C167.461 140.824 168.533 142.782 173.636 142.782V142.784Z" fill="#29A882"/>
<path d="M268.356 161.473C267.482 161.04 266.54 161.27 265.897 162.077L265.854 162.134C263.731 165.165 260.86 168.325 257.317 171.525C253.779 174.722 251.003 176.871 249.067 177.912C247.063 178.991 246.192 178.475 245.678 177.926C245.245 177.439 245.034 176.809 245.034 176.002C245.034 174.954 245.072 174.092 245.143 173.453C245.818 167.982 248.109 162.456 251.955 157.029L252.002 156.955C252.452 156.208 252.383 155.561 252.248 155.152C251.997 154.39 251.316 153.789 250.168 153.315C248.686 152.707 247.434 152.411 246.341 152.411C245.605 152.411 245.023 152.411 233.928 164.349C231.942 166.486 228.16 169.915 222.719 174.516C218.824 177.595 216.888 178.241 215.951 178.241C215.084 178.241 214.644 177.174 214.644 175.065C214.644 174.204 215.151 172.386 217.562 168.611C219.569 165.471 221.926 162.614 224.542 160.148C227.729 157.341 231.171 154.977 234.77 153.119C238.289 151.304 241.456 150.383 244.18 150.383C246.667 150.383 248.289 150.951 248.996 152.068L249.167 152.336L249.451 152.478C250.447 152.982 251.041 152.705 251.368 152.381C251.765 151.983 251.82 151.42 251.82 150.868C251.82 149.313 250.911 147.877 249.115 146.601C247.441 145.413 245.43 144.812 243.132 144.812C240.985 144.812 238.749 145.098 236.484 145.664C234.179 146.241 231.173 147.619 227.301 149.877C223.51 152.09 219.808 154.788 216.306 157.9C213.411 160.468 211.149 163.142 209.534 165.861C208.074 167.489 206.375 169.205 204.427 171.006C200.932 174.237 198.023 176.48 195.751 177.692C192.031 179.829 191.051 178.272 190.634 177.612C189.965 176.544 189.64 175.385 189.64 174.071C189.64 172.587 189.678 171.402 189.754 170.547C189.799 170.022 190.073 168.772 191.108 165.809C208.306 151.443 221.093 137.092 229.112 123.157L229.149 123.084C230.406 120.487 231.017 118.488 231.017 116.973C231.017 115.458 230.778 114.261 230.278 113.359C228.894 110.962 226.3 109.745 222.563 109.745C218.826 109.745 215.451 111.345 212.15 114.483C210.484 115.991 209.189 117.288 208.28 118.36L204.638 122.944C200.402 128.593 195.602 137.056 190.376 148.097C187.605 153.95 185.539 158.974 184.14 163.251C182.055 165.939 179.433 168.718 176.328 171.522C172.79 174.717 170.014 176.866 168.08 177.91C165.846 179.112 165.122 178.286 164.807 177.924C164.374 177.437 164.163 176.807 164.163 176C164.163 174.952 164.201 174.09 164.274 173.423C164.426 171.865 165.744 167.733 171.15 156.92C171.542 156.212 171.942 155.45 172.34 154.657L172.404 154.499C172.475 154.283 172.584 153.997 172.73 153.633C172.868 153.289 173.104 152.797 173.438 152.168C173.919 151.261 174.053 150.31 173.838 149.335L173.812 149.24C173.429 148.019 172.319 146.566 169.211 146.566H168.392L168.168 146.587C166.499 146.921 165.025 149.186 163.242 154.16C162.942 154.783 162.809 155.36 162.847 155.886C160.713 159.05 157.797 162.936 154.169 167.452C153.686 168.057 153.449 168.616 153.449 169.163C153.449 169.624 153.527 170.003 153.686 170.318C154.128 171.205 154.746 171.463 155.186 171.522C155.818 171.61 156.436 171.347 157.042 170.744C156.358 172.98 156.019 174.838 156.019 176.35C156.019 177.252 156.109 178.005 156.315 178.71C157.482 182.125 160 183.928 163.597 183.928C165.067 183.928 166.802 183.561 168.908 182.804C172.463 181.481 176.699 178.135 181.856 172.575C181.923 172.504 181.979 172.44 182.043 172.369C182.015 172.668 181.989 172.964 181.972 173.248V174.014C181.972 180.423 185.439 183.812 192.002 183.812C194.814 183.812 197.64 182.773 200.402 180.724C202.562 179.119 204.955 177.011 207.525 174.457C207.781 175.628 208.297 176.748 209.078 177.799C210.192 179.299 211.565 180.475 213.158 181.292C214.758 182.113 216.291 182.53 217.714 182.53C220.698 182.53 224.028 181.067 227.609 178.184C231.038 175.425 234.096 172.507 236.697 169.511C237.023 169.134 237.324 168.791 237.601 168.474C237.059 170.781 236.787 173.027 236.787 175.186C236.787 176.443 236.917 177.597 237.172 178.62L237.201 178.712C238.368 182.127 240.805 183.931 244.249 183.931C247.692 183.931 251.254 182.478 255.088 179.623C257.116 178.161 259.942 175.496 263.726 171.473C268.893 165.979 269.591 164.122 269.591 163.031C269.591 162.089 268.675 161.63 268.37 161.476L268.356 161.473ZM194.397 157.131C196.525 151.995 199.462 146.045 203.156 139.392C208.898 129.135 214.893 121.543 220.968 116.836C222.743 115.484 223.794 115.2 224.364 115.2C224.776 115.2 225.202 115.2 225.202 116.507C225.202 117.013 224.984 118.019 223.94 119.931L223.929 119.953C220.627 126.326 215.614 133.693 209.035 141.851C203.76 148.393 198.851 153.514 194.397 157.131Z" fill="#29A882"/>
<path fill-rule="evenodd" clip-rule="evenodd" d="M56.6391 125.859C64.4231 117.555 71.142 120.087 77.7095 112.074C74.8956 118.62 66.5247 125.005 52.6016 131.232C81.1341 126.562 92.1486 114.284 85.6426 94.3945C76.112 110.99 43.9419 105.243 56.6415 125.859" fill="#076B5F"/>
<mask id="mask0_253_39282" style="mask-type:luminance" maskUnits="userSpaceOnUse" x="52" y="94" width="36" height="38">
<path d="M56.6391 125.859C64.4231 117.555 71.142 120.087 77.7095 112.074C74.8956 118.62 66.5247 125.005 52.6016 131.232C81.1341 126.562 92.1486 114.284 85.6426 94.3945C76.112 110.99 43.9419 105.243 56.6415 125.859" fill="white"/>
</mask>
<g mask="url(#mask0_253_39282)">
<path d="M51.814 82.6233L36.8086 125.737L82.6115 141.679L97.6169 98.5646L51.814 82.6233Z" fill="#076B5F"/>
</g>
<path fill-rule="evenodd" clip-rule="evenodd" d="M49.4391 133.908C49.6758 148.428 46.9943 159.845 41.3924 168.159C38.2353 175.377 31.6867 182.368 19.2617 188.659C62.2925 186.825 53.3559 158.408 49.4391 133.908Z" fill="#29A882"/>
<mask id="mask1_253_39282" style="mask-type:luminance" maskUnits="userSpaceOnUse" x="19" y="133" width="34" height="56">
<path d="M49.4391 133.908C49.6758 148.428 46.9943 159.845 41.3924 168.159C38.2353 175.377 31.6867 182.368 19.2617 188.659C62.2925 186.825 53.3559 158.408 49.4391 133.908Z" fill="white"/>
</mask>
<g mask="url(#mask1_253_39282)">
<path d="M39.519 130.457L19.2617 188.66L57.0739 201.82L77.3312 143.617L39.519 130.457Z" fill="#29A882"/>
</g>
<path fill-rule="evenodd" clip-rule="evenodd" d="M41.3908 168.158C46.9927 159.844 49.6742 148.428 49.4375 133.908C47.6649 122.815 46.9217 112.525 52.4952 105.87C24.4455 117.232 51.9722 143.962 41.3885 168.158" fill="#076B5F"/>
<mask id="mask2_253_39282" style="mask-type:luminance" maskUnits="userSpaceOnUse" x="39" y="105" width="14" height="64">
<path d="M41.3908 168.158C46.9927 159.844 49.6742 148.428 49.4375 133.908C47.6649 122.815 46.9217 112.525 52.4952 105.87C24.4455 117.232 51.9722 143.962 41.3885 168.158" fill="white"/>
</mask>
<g mask="url(#mask2_253_39282)">
<path d="M31.0053 98.3915L10.4688 157.397L43.8062 169L64.3427 109.994L31.0053 98.3915Z" fill="#076B5F"/>
</g>
<path fill-rule="evenodd" clip-rule="evenodd" d="M38.2704 148.277C34.2802 143.924 30.7799 145.2 27.4168 141.006C28.8392 144.419 33.1465 147.777 40.3341 151.086C25.559 148.504 19.9145 142.071 23.4006 131.788C28.2523 140.45 44.9728 137.653 38.268 148.274" fill="#076B5F"/>
<mask id="mask3_253_39282" style="mask-type:luminance" maskUnits="userSpaceOnUse" x="22" y="131" width="19" height="21">
<path d="M38.2704 148.277C34.2802 143.924 30.7799 145.2 27.4168 141.006C28.8392 144.419 33.1465 147.777 40.3341 151.086C25.559 148.504 19.9145 142.071 23.4006 131.788C28.2523 140.45 44.9728 137.653 38.268 148.274" fill="white"/>
</mask>
<g mask="url(#mask3_253_39282)">
<path d="M23.911 130.325L18.4453 146.029L39.5385 153.371L45.0042 137.666L23.911 130.325Z" fill="#076B5F"/>
</g>
<path fill-rule="evenodd" clip-rule="evenodd" d="M59.8286 149.886C64.0437 144.788 68.0315 146.014 71.5484 141.132C70.152 145.029 65.5299 149.034 57.6797 153.149C74.057 149.413 79.9997 141.894 75.5102 130.593C70.5828 140.561 51.7204 138.391 59.8286 149.886Z" fill="#076B5F"/>
<mask id="mask4_253_39282" style="mask-type:luminance" maskUnits="userSpaceOnUse" x="57" y="130" width="20" height="24">
<path d="M59.8286 149.886C64.0437 144.788 68.0315 146.014 71.5484 141.132C70.152 145.029 65.5299 149.034 57.6797 153.149C74.057 149.413 79.9997 141.894 75.5102 130.593C70.5828 140.561 51.7204 138.391 59.8286 149.886Z" fill="white"/>
</mask>
<g mask="url(#mask4_253_39282)">
<path d="M58.7425 122.952L47.1797 148.359L71.928 159.622L83.4908 134.215L58.7425 122.952Z" fill="#076B5F"/>
</g>
</svg>
