<svg width="25" height="24" viewBox="0 0 25 24" fill="none" xmlns="http://www.w3.org/2000/svg">
<path d="M7.10156 15H17.1016V19C17.1016 19.5304 16.8908 20.0391 16.5158 20.4142C16.1407 20.7893 15.632 21 15.1016 21H9.10156C8.57113 21 8.06242 20.7893 7.68735 20.4142C7.31228 20.0391 7.10156 19.5304 7.10156 19V15Z" stroke="#076B5F" stroke-linecap="round" stroke-linejoin="round"/>
<path d="M12.1016 9C12.1016 7.4087 11.4694 5.88258 10.3442 4.75736C9.21898 3.63214 7.69286 3 6.10156 3H3.10156V5C3.10156 6.5913 3.7337 8.11742 4.85892 9.24264C5.98414 10.3679 7.51026 11 9.10156 11H12.1016" stroke="#076B5F" stroke-linecap="round" stroke-linejoin="round"/>
<path d="M12.1016 11C12.1016 9.4087 12.7337 7.88258 13.8589 6.75736C14.9841 5.63214 16.5103 5 18.1016 5H21.1016V6C21.1016 7.5913 20.4694 9.11742 19.3442 10.2426C18.219 11.3679 16.6929 12 15.1016 12H12.1016" stroke="#076B5F" stroke-linecap="round" stroke-linejoin="round"/>
<path d="M12.1016 15V9" stroke="#076B5F" stroke-linecap="round" stroke-linejoin="round"/>
</svg>
