<svg width="25" height="24" viewBox="0 0 25 24" fill="none" xmlns="http://www.w3.org/2000/svg">
<g clip-path="url(#clip0_797_1769)">
<path d="M4.20312 10.0011V22.1746C4.20312 22.3935 4.27975 22.6035 4.41614 22.7583C4.55253 22.913 4.73751 23 4.9304 23H9.29403V15.9844C9.29403 15.6561 9.40897 15.3412 9.61355 15.109C9.81814 14.8768 10.0956 14.7464 10.3849 14.7464H14.0213C14.3106 14.7464 14.5881 14.8768 14.7927 15.109C14.9973 15.3412 15.1122 15.6561 15.1122 15.9844V23H19.4759C19.6687 23 19.8537 22.913 19.9901 22.7583C20.1265 22.6035 20.2031 22.3935 20.2031 22.1746V10" stroke="#076B5F" stroke-width="1.5" stroke-linecap="round" stroke-linejoin="round"/>
<path d="M23.2031 12L12.7374 1.2107C12.4923 0.930897 11.9182 0.92864 11.6688 1.2107L1.20312 11.9989" stroke="#076B5F" stroke-width="1.5" stroke-linecap="round" stroke-linejoin="round"/>
<path d="M19.4531 7.39V2H17.2031V5.234" stroke="#076B5F" stroke-width="1.5" stroke-linecap="round" stroke-linejoin="round"/>
</g>
<defs>
<clipPath id="clip0_797_1769">
<rect width="24" height="24" fill="white" transform="translate(0.101562)"/>
</clipPath>
</defs>
</svg>
