<svg width="25" height="24" viewBox="0 0 25 24" fill="none" xmlns="http://www.w3.org/2000/svg">
<g clip-path="url(#clip0_797_2150)">
<path d="M12.3627 4.74443C12.2929 4.6778 12.2001 4.64062 12.1037 4.64062C12.0072 4.64062 11.9144 4.6778 11.8447 4.74443L3.21466 12.9884C3.17815 13.0235 3.14914 13.0656 3.12937 13.1121C3.1096 13.1587 3.09949 13.2088 3.09966 13.2594L3.09766 20.9964C3.09766 21.3943 3.25569 21.7758 3.537 22.0571C3.8183 22.3384 4.19983 22.4964 4.59766 22.4964H9.10266C9.30157 22.4964 9.49233 22.4174 9.63299 22.2768C9.77364 22.1361 9.85266 21.9453 9.85266 21.7464V15.3714C9.85266 15.272 9.89216 15.1766 9.96249 15.1063C10.0328 15.0359 10.1282 14.9964 10.2277 14.9964H13.9777C14.0771 14.9964 14.1725 15.0359 14.2428 15.1063C14.3131 15.1766 14.3527 15.272 14.3527 15.3714V21.7464C14.3527 21.9453 14.4317 22.1361 14.5723 22.2768C14.713 22.4174 14.9037 22.4964 15.1027 22.4964H19.6057C20.0035 22.4964 20.385 22.3384 20.6663 22.0571C20.9476 21.7758 21.1057 21.3943 21.1057 20.9964V13.2594C21.1057 13.2088 21.0954 13.1586 21.0755 13.112C21.0555 13.0654 21.0263 13.0234 20.9897 12.9884L12.3627 4.74443Z" fill="#076B5F"/>
<path d="M23.1116 11.444L19.6056 8.09V3C19.6056 2.80109 19.5266 2.61032 19.3859 2.46967C19.2453 2.32902 19.0545 2.25 18.8556 2.25H16.6056C16.4067 2.25 16.2159 2.32902 16.0753 2.46967C15.9346 2.61032 15.8556 2.80109 15.8556 3V4.5L13.1406 1.904C12.8866 1.647 12.5086 1.5 12.1006 1.5C11.6936 1.5 11.3166 1.647 11.0626 1.905L1.0926 11.444C0.950389 11.5777 0.864654 11.7607 0.852942 11.9555C0.84123 12.1503 0.904428 12.3422 1.0296 12.492C1.09612 12.5691 1.17768 12.6319 1.26928 12.6764C1.36088 12.7209 1.46059 12.7463 1.56234 12.751C1.66408 12.7557 1.7657 12.7395 1.861 12.7036C1.9563 12.6677 2.04327 12.6127 2.1166 12.542L11.8426 3.248C11.9124 3.18108 12.0054 3.14371 12.1021 3.14371C12.1988 3.14371 12.2918 3.18108 12.3616 3.248L22.0886 12.542C22.2318 12.6795 22.4237 12.7546 22.6222 12.7509C22.8207 12.7471 23.0097 12.6648 23.1476 12.522C23.4356 12.223 23.4116 11.731 23.1116 11.444Z" fill="#076B5F"/>
</g>
<defs>
<clipPath id="clip0_797_2150">
<rect width="24" height="24" fill="white" transform="translate(0.101562)"/>
</clipPath>
</defs>
</svg>
