<svg width="27" height="26" viewBox="0 0 27 26" fill="none" xmlns="http://www.w3.org/2000/svg">
<path d="M20.6289 12.2559C21.2364 12.7087 21.9547 12.9326 22.6729 12.9326C23.2716 12.9326 23.8343 12.7779 24.3242 12.5068L25.0664 12.0967V23.873C25.0664 24.4391 24.607 24.8984 24.041 24.8984H15.2637V16.2705C15.2635 16.2569 15.2529 16.2462 15.2393 16.2461H11.3623C11.3486 16.2461 11.3371 16.2569 11.3369 16.2705V24.8984H2.55957C1.99376 24.8982 1.53516 24.4389 1.53516 23.873V12.0967L2.27734 12.5068C2.76716 12.7778 3.32912 12.9325 3.92773 12.9326C4.68447 12.9326 5.39588 12.6859 5.97266 12.2559L6.27148 12.0322L6.57031 12.2559C7.17529 12.7069 7.8932 12.9326 8.61426 12.9326C9.37083 12.9326 10.0816 12.6857 10.6582 12.2559L10.957 12.0322L11.2559 12.2559C11.8622 12.708 12.581 12.9326 13.3008 12.9326C14.0575 12.9326 14.7683 12.6857 15.3447 12.2559L15.6436 12.0322L15.9424 12.2559C16.5485 12.7078 17.2666 12.9325 17.9863 12.9326C18.7432 12.9326 19.4547 12.6858 20.0312 12.2559L20.3301 12.0322L20.6289 12.2559ZM4.19434 21.2324C4.19434 21.3714 4.30734 21.4844 4.44629 21.4844H8.28027C8.41917 21.4843 8.53221 21.3713 8.53223 21.2324V19.3545H4.19434V21.2324ZM18.0586 21.2324C18.0586 21.3714 18.1716 21.4844 18.3105 21.4844H22.1445C22.2835 21.4844 22.3965 21.3713 22.3965 21.2324V19.3545H18.0586V21.2324ZM18.3105 16.582C18.1833 16.582 18.0793 16.6771 18.0625 16.7998H22.3926C22.3758 16.6772 22.2719 16.582 22.1445 16.582H18.3105ZM4.44629 16.582C4.31897 16.582 4.21398 16.6771 4.19727 16.7998H8.52832C8.51157 16.6772 8.40752 16.5821 8.28027 16.582H4.44629Z" stroke="#076B5F"/>
<path d="M20.6289 12.2559C21.2364 12.7087 21.9547 12.9326 22.6729 12.9326C23.2716 12.9326 23.8343 12.7779 24.3242 12.5068L25.0664 12.0967V23.873C25.0664 24.4391 24.607 24.8984 24.041 24.8984H15.2637V16.2705C15.2635 16.2569 15.2529 16.2462 15.2393 16.2461H11.3623C11.3486 16.2461 11.3371 16.2569 11.3369 16.2705V24.8984H2.55957C1.99376 24.8982 1.53516 24.4389 1.53516 23.873V12.0967L2.27734 12.5068C2.76716 12.7778 3.32912 12.9325 3.92773 12.9326C4.68447 12.9326 5.39588 12.6859 5.97266 12.2559L6.27148 12.0322L6.57031 12.2559C7.17529 12.7069 7.8932 12.9326 8.61426 12.9326C9.37083 12.9326 10.0816 12.6857 10.6582 12.2559L10.957 12.0322L11.2559 12.2559C11.8622 12.708 12.581 12.9326 13.3008 12.9326C14.0575 12.9326 14.7683 12.6857 15.3447 12.2559L15.6436 12.0322L15.9424 12.2559C16.5485 12.7078 17.2666 12.9325 17.9863 12.9326C18.7432 12.9326 19.4547 12.6858 20.0312 12.2559L20.3301 12.0322L20.6289 12.2559ZM4.19434 21.2324C4.19434 21.3714 4.30734 21.4844 4.44629 21.4844H8.28027C8.41917 21.4843 8.53221 21.3713 8.53223 21.2324V19.3545H4.19434V21.2324ZM18.0586 21.2324C18.0586 21.3714 18.1716 21.4844 18.3105 21.4844H22.1445C22.2835 21.4844 22.3965 21.3713 22.3965 21.2324V19.3545H18.0586V21.2324ZM18.3105 16.582C18.1833 16.582 18.0793 16.6771 18.0625 16.7998H22.3926C22.3758 16.6772 22.2719 16.582 22.1445 16.582H18.3105ZM4.44629 16.582C4.31897 16.582 4.21398 16.6771 4.19727 16.7998H8.52832C8.51157 16.6772 8.40752 16.5821 8.28027 16.582H4.44629Z" stroke="#076B5F"/>
<path d="M21.792 0.5C22.7439 0.5 23.5767 1.13788 23.8262 2.05566L23.8271 2.05762C23.8274 2.05845 23.8277 2.06 23.8281 2.06152C23.8291 2.06483 23.8312 2.06988 23.833 2.07617C23.8367 2.08908 23.8416 2.10818 23.8486 2.13281C23.863 2.18313 23.8844 2.25747 23.9111 2.35156C23.9646 2.53975 24.0411 2.80916 24.1328 3.13379C24.3162 3.783 24.561 4.65406 24.8057 5.54004C25.0501 6.42536 25.2953 7.3279 25.4795 8.04004C25.5715 8.39553 25.6491 8.70708 25.7041 8.94629C25.7315 9.06552 25.7544 9.17113 25.7705 9.25684C25.7838 9.32791 25.8008 9.42666 25.8008 9.50977L25.7969 9.6709C25.7131 11.3234 24.3462 12.6377 22.6729 12.6377C21.7387 12.6376 20.9024 12.2264 20.3301 11.5781C19.7577 12.2264 18.9215 12.6376 17.9873 12.6377C17.0529 12.6377 16.216 12.2266 15.6436 11.5781C15.0711 12.2264 14.235 12.6377 13.3008 12.6377C12.3663 12.6377 11.5295 12.2267 10.957 11.5781C10.3846 12.2263 9.54845 12.6377 8.61426 12.6377C7.68007 12.6376 6.84386 12.2264 6.27148 11.5781C5.69914 12.2264 4.8629 12.6376 3.92871 12.6377C2.2014 12.6377 0.800781 11.2371 0.800781 9.50977C0.800805 9.42626 0.817626 9.329 0.831055 9.25781C0.847024 9.17316 0.869406 9.07011 0.896484 8.9541C0.950885 8.72106 1.02789 8.41877 1.11914 8.07422C1.30186 7.38424 1.54614 6.5093 1.79199 5.64258C2.28642 3.89956 2.78341 2.20763 2.82617 2.05176C3.07714 1.1356 3.90953 0.500072 4.85938 0.5H21.792Z" stroke="#076B5F"/>
</svg>
