<svg width="25" height="24" viewBox="0 0 25 24" fill="none" xmlns="http://www.w3.org/2000/svg">
<g clip-path="url(#clip0_797_442)">
<path d="M19.7283 11.957C19.0675 12.4499 18.2523 12.7338 17.3852 12.7338C16.5607 12.7338 15.7372 12.4753 15.0421 11.957C14.3813 12.4499 13.5662 12.7338 12.699 12.7338C11.8747 12.7338 11.0511 12.4754 10.3559 11.957C9.69496 12.4499 8.87981 12.7338 8.01279 12.7338C7.18677 12.7338 6.3634 12.4744 5.66968 11.957C5.00863 12.4499 4.19359 12.7338 3.32657 12.7338C2.6405 12.7338 1.99527 12.5563 1.43359 12.2456V23.1739C1.43359 23.4637 1.6686 23.6987 1.95849 23.6987H10.2356V15.5716C10.2356 15.2817 10.4706 15.0467 10.7605 15.0467H14.6376C14.9275 15.0467 15.1625 15.2817 15.1625 15.5716V23.6987H23.4395C23.7294 23.6987 23.9644 23.4637 23.9644 23.1739V12.2456C23.4027 12.5563 22.7575 12.7338 22.0714 12.7338C21.2488 12.7338 20.4249 12.4764 19.7283 11.957ZM3.09287 16.1348C3.09287 15.7197 3.42938 15.3832 3.84444 15.3832H7.67852C8.09364 15.3832 8.43014 15.7197 8.43014 16.1348V16.6004H3.09287V16.1348ZM8.4302 20.5336C8.43014 20.9487 8.09364 21.2852 7.67852 21.2852H3.84449C3.42938 21.2852 3.09292 20.9487 3.09292 20.5336V18.1555H8.4302V20.5336ZM22.2946 20.5336C22.2946 20.9487 21.9581 21.2852 21.543 21.2852H17.7089C17.2938 21.2852 16.9573 20.9487 16.9573 20.5336V18.1555H22.2946V20.5336ZM22.2946 16.1348V16.6004H16.9573V16.1348C16.9573 15.7197 17.2938 15.3832 17.7089 15.3832H21.543C21.9581 15.3832 22.2946 15.7197 22.2946 16.1348Z" fill="#076B5F"/>
<path d="M3.32676 11.4383C4.35001 11.4383 5.23597 10.853 5.66987 9.99932C6.10382 10.853 6.98977 11.4383 8.01297 11.4383C9.03623 11.4383 9.92218 10.853 10.3561 9.99932C10.79 10.853 11.676 11.4383 12.6992 11.4383C13.7225 11.4383 14.6085 10.853 15.0424 9.99932C15.4763 10.853 16.3623 11.4383 17.3855 11.4383C18.4087 11.4383 19.2947 10.853 19.7286 9.99932C20.1625 10.853 21.0485 11.4383 22.0717 11.4383C23.5229 11.4383 24.6992 10.2618 24.6992 8.81073C24.6993 8.33391 22.7447 1.49421 22.7447 1.49421C22.5567 0.790401 21.9191 0.300781 21.1906 0.300781H4.25797C3.5333 0.300781 2.89806 0.785354 2.7066 1.48428C2.62201 1.79295 0.699219 8.32163 0.699219 8.81073C0.699219 10.2619 1.87559 11.4383 3.32676 11.4383Z" fill="#076B5F"/>
</g>
<defs>
<clipPath id="clip0_797_442">
<rect width="24" height="24" fill="white" transform="translate(0.699219)"/>
</clipPath>
</defs>
</svg>
