<svg width="24" height="24" viewBox="0 0 24 24" fill="none" xmlns="http://www.w3.org/2000/svg">
<path d="M1.5 17.6252C1.5 18.3214 1.77656 18.9891 2.26884 19.4814C2.76113 19.9737 3.42881 20.2502 4.125 20.2502H19.875C20.5712 20.2502 21.2389 19.9737 21.7312 19.4814C22.2234 18.9891 22.5 18.3214 22.5 17.6252V10.4062H1.5V17.6252ZM4.594 14.0623C4.594 13.6894 4.74213 13.3317 5.00581 13.0681C5.26948 12.8044 5.62711 12.6562 6 12.6562H8.25C8.43464 12.6562 8.61747 12.6926 8.78805 12.7633C8.95864 12.8339 9.11363 12.9375 9.24419 13.0681C9.37475 13.1986 9.47832 13.3536 9.54897 13.5242C9.61963 13.6948 9.656 13.8776 9.656 14.0623V15.0002C9.656 15.1849 9.61963 15.3677 9.54897 15.5383C9.47832 15.7089 9.37475 15.8639 9.24419 15.9944C9.11363 16.125 8.95864 16.2286 8.78805 16.2992C8.61747 16.3699 8.43464 16.4062 8.25 16.4062H6C5.62711 16.4062 5.26948 16.2581 5.00581 15.9944C4.74213 15.7308 4.594 15.3731 4.594 15.0002V14.0623Z" fill="#076B5F"/>
<path d="M19.875 3.75H4.125C3.42881 3.75 2.76113 4.02656 2.26884 4.51884C1.77656 5.01113 1.5 5.67881 1.5 6.375V7.594H22.5V6.375C22.5 5.67881 22.2234 5.01113 21.7312 4.51884C21.2389 4.02656 20.5712 3.75 19.875 3.75Z" fill="#076B5F"/>
</svg>
