<svg width="25" height="24" viewBox="0 0 25 24" fill="none" xmlns="http://www.w3.org/2000/svg">
<path d="M15.9481 6C15.9481 8.07107 14.2692 9.75 12.1981 9.75C10.127 9.75 8.44808 8.07107 8.44808 6C8.44808 3.92893 10.127 2.25 12.1981 2.25C14.2692 2.25 15.9481 3.92893 15.9481 6Z" fill="#076B5F"/>
<path d="M4.69922 20.1182C4.76952 16.0369 8.09996 12.75 12.1981 12.75C16.2963 12.75 19.6268 16.0371 19.697 20.1185C17.4142 21.166 14.8745 21.75 12.1984 21.75C9.52208 21.75 6.98218 21.1659 4.69922 20.1182Z" fill="#076B5F"/>
<path d="M15.9481 6C15.9481 8.07107 14.2692 9.75 12.1981 9.75C10.127 9.75 8.44808 8.07107 8.44808 6C8.44808 3.92893 10.127 2.25 12.1981 2.25C14.2692 2.25 15.9481 3.92893 15.9481 6Z" stroke="#076B5F" stroke-width="1.5" stroke-linecap="round" stroke-linejoin="round"/>
<path d="M4.69922 20.1182C4.76952 16.0369 8.09996 12.75 12.1981 12.75C16.2963 12.75 19.6268 16.0371 19.697 20.1185C17.4142 21.166 14.8745 21.75 12.1984 21.75C9.52208 21.75 6.98218 21.1659 4.69922 20.1182Z" stroke="#076B5F" stroke-width="1.5" stroke-linecap="round" stroke-linejoin="round"/>
</svg>
