<svg width="24" height="24" viewBox="0 0 24 24" fill="none" xmlns="http://www.w3.org/2000/svg">
<g clip-path="url(#clip0_688_1445)">
<path d="M15.1748 17.8389C15.6472 17.6652 16.1563 17.6159 16.6533 17.6953C17.1506 17.7749 17.6199 17.9804 18.0146 18.293C18.4094 18.6055 18.7167 19.0148 18.9082 19.4805L18.9717 19.6348H19.3848C20.4947 19.6348 21.5589 20.0765 22.3438 20.8613C23.0694 21.587 23.5006 22.5516 23.5615 23.5703H0.4375C0.499566 22.5525 0.931732 21.5889 1.65723 20.8643C2.44182 20.0806 3.50534 19.6407 4.61426 19.6406H4.61523C5.01061 19.6395 5.40448 19.696 5.7832 19.8096L5.90625 19.8467L6.00781 19.7676C6.52402 19.366 7.16046 19.1489 7.81445 19.1504H7.81543C8.06054 19.1501 8.3047 19.1808 8.54199 19.2422L8.66992 19.2754L8.76953 19.1885C9.526 18.5277 10.4956 18.1624 11.5 18.1602H11.501C12.2523 18.1549 12.9912 18.3557 13.6367 18.7402L13.8174 18.8477L13.9551 18.6875C14.2823 18.3049 14.7023 18.0126 15.1748 17.8389Z" stroke="#076B5F" stroke-width="0.5"/>
<path d="M11.7441 10.7598C9.03218 10.6943 6.44469 9.59231 4.52051 7.6709C2.59654 5.7496 1.4914 3.16373 1.42188 0.452148C4.13356 0.517921 6.72057 1.61971 8.64453 3.54102C10.5686 5.46246 11.6748 8.04799 11.7441 10.7598Z" stroke="#076B5F" stroke-width="0.5"/>
<path d="M3.13672 3.13477L3.96672 3.54977C6.08552 4.60926 7.86844 6.23639 9.11672 8.24977C10.3549 10.2666 11.0076 12.5882 11.0017 14.9548H13.0017C13.001 12.3933 12.1753 9.90017 10.6467 7.84477C9.11746 5.78338 6.96147 4.27296 4.50172 3.53977L3.13672 3.13477Z" fill="#076B5F"/>
<path d="M22.5781 3.39062C22.5466 4.69345 22.2786 5.98019 21.7793 7.18555C21.2474 8.46976 20.4673 9.63625 19.4844 10.6191C17.5597 12.5438 14.9704 13.6473 12.2559 13.7129C12.3217 10.9987 13.4262 8.40978 15.3506 6.48535C17.275 4.56092 19.8639 3.45646 22.5781 3.39062Z" stroke="#076B5F" stroke-width="0.5"/>
<path d="M20.865 6.08984L20.035 6.49984C17.9157 7.55735 16.1341 9.18598 14.8911 11.202C13.648 13.2181 12.9931 15.5414 13 17.9098H11C11.0027 15.3471 11.8309 12.8534 13.3619 10.7983C14.8929 8.74315 17.0452 7.23589 19.5 6.49984L20.865 6.08984Z" fill="#076B5F"/>
<path d="M12.9856 14.9551H11.0156V21.3551H12.9856V14.9551Z" fill="#076B5F"/>
<path d="M16.6299 19.915H16.6465C17.02 19.906 17.3883 20.0039 17.708 20.1973C18.0276 20.3906 18.2857 20.671 18.4512 21.0059L18.7256 21.5996L18.8604 21.8896H20.1934C20.8793 21.8709 21.5541 22.0675 22.123 22.4512C22.4797 22.6918 22.7834 22.9986 23.0195 23.3525L0.992188 23.3203C1.22869 22.965 1.53373 22.6574 1.8916 22.416C2.46052 22.0323 3.13533 21.8357 3.82129 21.8545H3.83203C4.1463 21.8559 4.45959 21.8994 4.7627 21.9824H4.76367L5.29883 22.127L5.52344 22.1885L5.71484 22.0557L6.1543 21.751H6.15527C6.51101 21.5041 6.93417 21.3726 7.36719 21.375H7.375C7.53142 21.3734 7.68759 21.3899 7.83984 21.4258L8.39551 21.5693L8.63672 21.6309L8.83105 21.4756L9.27148 21.125C9.89659 20.6397 10.6677 20.3803 11.459 20.3896H11.4619C12.0536 20.3935 12.6352 20.5442 13.1543 20.8281L13.1572 20.8301L13.418 20.9697L13.5283 21.0293H14.6592L14.8057 20.8809L15.1406 20.541L15.1445 20.5371C15.3367 20.3378 15.5679 20.1792 15.8232 20.0723C16.0785 19.9654 16.3532 19.9123 16.6299 19.915Z" fill="#076B5F" stroke="#076B5F"/>
</g>
<defs>
<clipPath id="clip0_688_1445">
<rect width="24" height="24" fill="white"/>
</clipPath>
</defs>
</svg>
