<svg width="24" height="24" viewBox="0 0 24 24" fill="none" xmlns="http://www.w3.org/2000/svg">
<path d="M14.4236 14.169C14.3702 14.1351 14.3263 14.0883 14.2959 14.0329C14.2655 13.9774 14.2495 13.9152 14.2496 13.852V3.75C14.2496 3.15326 14.0126 2.58097 13.5906 2.15901C13.1686 1.73705 12.5963 1.5 11.9996 1.5C11.4029 1.5 10.8306 1.73705 10.4086 2.15901C9.98666 2.58097 9.74961 3.15326 9.74961 3.75V13.852C9.74951 13.9151 9.73352 13.9771 9.7031 14.0323C9.67269 14.0875 9.62884 14.1342 9.57561 14.168C8.90917 14.6022 8.36758 15.2029 8.00437 15.9105C7.64116 16.6182 7.4689 17.4084 7.50461 18.203C7.55991 19.376 8.07158 20.481 8.93039 21.282C9.7892 22.0829 10.9271 22.5165 12.1012 22.49C13.2752 22.4635 14.3924 21.9791 15.2142 21.1402C16.036 20.3013 16.4973 19.1743 16.4996 18C16.4999 17.2391 16.3101 16.4901 15.9476 15.8211C15.5851 15.1521 15.0612 14.5843 14.4236 14.169Z" stroke="#076B5F" stroke-width="0.5" stroke-linecap="round"/>
<path d="M12 5.25V18" stroke="#076B5F" stroke-width="0.5" stroke-linecap="round"/>
<path d="M12 16C12.5304 16 13.039 16.2109 13.4141 16.5859C13.7891 16.961 14 17.4696 14 18C14 18.5304 13.7891 19.039 13.4141 19.4141C13.039 19.7891 12.5304 20 12 20C11.4696 20 10.961 19.7891 10.5859 19.4141C10.2109 19.039 10 18.5304 10 18C10 17.4696 10.2109 16.961 10.5859 16.5859C10.961 16.2109 11.4696 16 12 16Z" fill="#076B5F" stroke="#076B5F" stroke-width="0.5"/>
</svg>
