<svg width="24" height="24" viewBox="0 0 24 24" fill="none" xmlns="http://www.w3.org/2000/svg">
<path d="M18.75 15.0036C18.75 19.1456 16.142 21.7536 12 21.7536C7.858 21.7536 5.25 19.1456 5.25 15.0036C5.25 10.5576 10.089 4.5566 11.573 2.8216C11.6258 2.75995 11.6912 2.71045 11.765 2.67651C11.8387 2.64257 11.9189 2.625 12 2.625C12.0811 2.625 12.1613 2.64257 12.235 2.67651C12.3088 2.71045 12.3742 2.75995 12.427 2.8216C13.911 4.5566 18.75 10.5586 18.75 15.0036Z" stroke="#076B5F" stroke-width="1.5" stroke-linecap="round" stroke-linejoin="round"/>
<path d="M16.125 15.375C16.125 16.2701 15.7694 17.1286 15.1365 17.7615C14.5035 18.3944 13.6451 18.75 12.75 18.75" stroke="#076B5F" stroke-width="1.5" stroke-linecap="round" stroke-linejoin="round"/>
</svg>
